<svg xmlns="http://www.w3.org/2000/svg" xmlns:xlink="http://www.w3.org/1999/xlink" width="865.76" height="682.89" viewBox="0 0 865.76 682.89"><defs><clipPath id="a291636e-f8ca-4a46-8c1e-e2486c4851f7"><path fill="#f9c7a5" stroke="#351d66" stroke-miterlimit="10" d="M356,312.77l.71,67.42s14.88,45.49,57.82,120.31c0,0,1.7,19.13-26.78,25.93L324.36,411.22S315.44,384,315,368.28l-7.65-56.11Z"/></clipPath><clipPath id="a040f302-f8d5-43d2-8df8-a83440e6b9dc"><polygon fill="#f9d067" stroke="#351d66" stroke-miterlimit="10" points="355.96 312.77 303.33 312.77 286.17 242.2 357.13 236.35 355.96 312.77" data-secondary="true"/></clipPath><clipPath id="e7554370-b2fd-418d-96f6-b156169340dc"><polygon fill="#f9c7a5" stroke="#351d66" stroke-miterlimit="10" points="186.33 255.53 195.63 282.82 229.12 284.06 217.34 243.75 186.33 255.53"/></clipPath><clipPath id="bb76a287-f085-4c5c-8199-f90ae6ff498f"><path fill="#f9d067" stroke="#351d66" stroke-miterlimit="10" d="M207.42,142.79S246,75,275.26,66.77c0,0,17.54-6.24,12.86,24.56,0,0-24.24-13.44-68.22,43.66,0,0,44.83-47.17,60.82-29.24,0,0,32.35,28.46,66.66,10.92,0,0,25.91-11.31,45.6-31.47a61.81,61.81,0,0,1,8.53-7.3c5-3.56,11.24-6.78,12.15-1.78,0,0-2.73,13.26-6.24,16.77,0,0-9.75-7.8-33.14,12.08,0,0-9.74,6.63-28.85,35.87,0,0-12.47,20.27-28.46,32.75L219.51,161.5,204.44,152Z" data-secondary="true"/></clipPath><clipPath id="a78bbba6-fa04-450c-a57d-23f24ec00849"><path fill="#f9c7a5" stroke="#351d66" stroke-miterlimit="10" d="M353.7,288.79,340.94,313l93.53,81.2s11.06,9.78,5.95,20.4c0,0-5.1-2.12-12.75,4.26,0,0-7.23,1.7-9.78,4.25L313.73,349.58s-37.41-21.68-11.47-59.52l14.88-24.66,23.8-5.95Z"/></clipPath><clipPath id="fccc37fe-0993-4b8a-a9f6-621f0ae9e8a3"><path fill="#f9d067" stroke="#351d66" stroke-miterlimit="10" d="M271.75,241.42,303.33,243l9.74,19.89s34.7,16.37,42.89,27.68l27.8-51.49a37.55,37.55,0,0,0,3.34-27.83c-3.42-12.25-14-25.51-43.62-26.34L307.23,197Z" data-secondary="true"/></clipPath><clipPath id="b845e836-c95a-43ed-aabb-3b20dc82601a"><path fill="#f9c7a5" stroke="#351d66" stroke-miterlimit="10" d="M290.85,192.3l22.72,6.46L293,263.6s-26.67,6.82-21.71,18l7.47,17.74s7.89,1.17,12-2.05l3.51-1.17s11.79-1.5,14.82-6.34a3.22,3.22,0,0,0-.46-3.91l-4.3-4.5a4.09,4.09,0,0,1-1-4,3.81,3.81,0,0,1,3-2.58l12.28-7,17.9-48.11c2.07-5.56,4.33-11,6.65-16.49a33.7,33.7,0,0,0,2.47-8.66,17.62,17.62,0,0,0-9.25-17.73L306,160.43Z"/></clipPath><clipPath id="fde6349b-4102-4479-ae09-c35e50e7025d"><path fill="#fcbaeb" stroke="#351d66" stroke-miterlimit="10" d="M220.73,158.68l15.15-10s12.48-8.58,24.17-5.07l45.62,14.81s2.34,5.46-.39,13.26c0,0-6.63,17.93-14.43,20.66L307.23,197s1.17,24.56-35.48,44.44c0,0-16.37,7.8-23.78-1.95,0,0-17.55,10.92-30.41,7.41,0,0-17.54,14.82-37.43,11.31l-12.08-43.28s-2.71-18,7.87-22.81L204.44,152Z" data-primary="true"/></clipPath><clipPath id="bb87697a-fc5d-40cb-a980-737ecbb26cec"><path fill="#f9c7a5" stroke="#351d66" stroke-miterlimit="10" d="M182.57,185.11l14.89,9.47s-.33,14.95,9,13c0,0,18.94-1.66,23.26-35.9,0,0,.67-15.62-9-13L198.56,147.3Z"/></clipPath><clipPath id="e7d11cdb-b7e8-4ec6-a228-1d4493df5a80"><path fill="#fcbaeb" stroke="#351d66" stroke-miterlimit="10" d="M179.33,129.31a82.16,82.16,0,0,1-15.77-2.5s-27.19-3.51-28.65,16.66c0,0-6.91-7.3.51-22.71a48.39,48.39,0,0,1,14.7-17.62c6-4.51,15.06-10.11,25-12.24,15.57-3.34,31.65,6.51,35.21,22,1.89,8.21,1.62,19.37-4.09,34.06,0,0-9.65,38.89-22.51,40.94,0,0,11.7-11.12,9.06-32.17,0,0-2.05-14-9.54-24.3A5.29,5.29,0,0,0,179.33,129.31Z" data-primary="true"/></clipPath><clipPath id="b3f7225e-5f9a-4c28-a72f-f6f751f87208"><path fill="#f9d067" stroke="#351d66" stroke-miterlimit="10" d="M134.44,148.73c-.27-3.85-.25-19,16.06-21.34a39.82,39.82,0,0,1,20.67,1.17S161,130.9,156.74,139.67c0,0-7.49,15.17-21.37,10.26A1.35,1.35,0,0,1,134.44,148.73Z" data-secondary="true"/></clipPath><clipPath id="be6ab87b-bf93-4eaf-a773-c993dd896fa8"><path fill="#f9d067" stroke="#351d66" stroke-miterlimit="10" d="M156.35,121.15l14.31,7.16a.35.35,0,0,0,.5-.32c-.07-2.08-.82-9.22-7.79-11.71C163.37,116.28,159.08,115.69,156.35,121.15Z" data-secondary="true"/></clipPath><clipPath id="b3477d55-8bc8-4785-a425-c13b0a19c789"><polygon fill="#f9d067" stroke="#351d66" stroke-miterlimit="10" points="73.74 360.36 77.59 395.52 69.4 400.82 70.37 413.82 86.26 402.75 88.19 412.86 80.96 419.12 81.44 431.16 169.1 372.88 200.41 364.7 290.95 370 288.54 358.44 297.69 358.92 295.29 339.65 286.62 340.13 285.17 334.36 287.1 332.91 284.21 322.31 287.1 321.35 283.25 298.23 267.83 296.79 193.18 293.9 162.36 303.05 73.74 360.36" data-secondary="true"/></clipPath></defs><g style="isolation:isolate"><g id="f7b13948-ea0a-42ac-8617-54fd1e57832d" data-name="Layer 1"><path fill="#E6E7E8" d="M869.57,333.74l-.43-99.14h-55.5l.66,119.5-42.21.51V258.92H706.67V360.63l-19.56.65V258.73H664.28V215h-13.7V185.68H597.1V215H583.4v43.7H560.57v55.56l-10.53.65-3.17-164.58H476.43v87.55l-24.78.66V101.72h-8.48V72.84H368.81v28.88h-8.48V317.11H344.68V228.63H331.63V200.51H312.72V118.44h-27.4v82.07H266.41v28.12H253.36v97.28h-9.13l-7.17-.09V213.11L44,215V468.76H27.69V435.49H3.19V685.43l866.52.28Z" opacity=".9"/><g opacity=".42"><rect width="22.85" height="29.59" x="59.92" y="233.34" fill="#E6E7E8" style="mix-blend-mode:multiply"/><rect width="22.85" height="29.59" x="59.92" y="328.52" fill="#E6E7E8" style="mix-blend-mode:multiply"/><rect width="22.85" height="29.59" x="95.03" y="233.34" fill="#E6E7E8" style="mix-blend-mode:multiply"/><rect width="22.85" height="29.59" x="130.13" y="233.34" fill="#E6E7E8" style="mix-blend-mode:multiply"/><rect width="22.85" height="29.59" x="130.13" y="392.93" fill="#E6E7E8" style="mix-blend-mode:multiply"/><rect width="22.85" height="29.59" x="95.03" y="280.56" fill="#E6E7E8" style="mix-blend-mode:multiply"/><rect width="22.85" height="29.59" x="95.03" y="443.47" fill="#E6E7E8" style="mix-blend-mode:multiply"/><rect width="22.85" height="29.59" x="95.03" y="328.52" fill="#E6E7E8" style="mix-blend-mode:multiply"/><rect width="22.85" height="29.59" x="160.3" y="328.52" fill="#E6E7E8" style="mix-blend-mode:multiply"/><rect width="22.85" height="29.59" x="160.3" y="443.47" fill="#E6E7E8" style="mix-blend-mode:multiply"/><rect width="22.85" height="29.59" x="189.03" y="233.34" fill="#E6E7E8" style="mix-blend-mode:multiply"/><rect width="12.69" height="16.44" x="374.26" y="115.97" fill="#E6E7E8" style="mix-blend-mode:multiply"/><rect width="12.69" height="16.44" x="400.67" y="115.97" fill="#E6E7E8" style="mix-blend-mode:multiply"/><rect width="12.69" height="16.44" x="374.26" y="144.98" fill="#E6E7E8" style="mix-blend-mode:multiply"/><rect width="12.69" height="16.44" x="427.07" y="144.98" fill="#E6E7E8" style="mix-blend-mode:multiply"/><rect width="12.69" height="16.44" x="400.67" y="173.99" fill="#E6E7E8" style="mix-blend-mode:multiply"/><rect width="12.69" height="16.44" x="427.07" y="173.99" fill="#E6E7E8" style="mix-blend-mode:multiply"/><rect width="12.69" height="16.44" x="374.26" y="203" fill="#E6E7E8" style="mix-blend-mode:multiply"/><rect width="12.69" height="16.44" x="427.07" y="203" fill="#E6E7E8" style="mix-blend-mode:multiply"/><rect width="12.69" height="16.44" x="374.26" y="232.01" fill="#E6E7E8" style="mix-blend-mode:multiply"/><rect width="12.69" height="16.44" x="400.67" y="232.01" fill="#E6E7E8" style="mix-blend-mode:multiply"/><rect width="12.69" height="16.44" x="427.07" y="261.03" fill="#E6E7E8" style="mix-blend-mode:multiply"/><rect width="12.69" height="16.44" x="374.26" y="319.05" fill="#E6E7E8" style="mix-blend-mode:multiply"/><rect width="12.69" height="16.44" x="579.89" y="270.55" fill="#E6E7E8" style="mix-blend-mode:multiply"/><rect width="12.69" height="16.44" x="650.38" y="270.55" fill="#E6E7E8" style="mix-blend-mode:multiply"/><rect width="12.69" height="16.44" x="614.2" y="225.9" fill="#E6E7E8" style="mix-blend-mode:multiply"/><rect width="12.69" height="16.44" x="818.17" y="250.7" fill="#E6E7E8" style="mix-blend-mode:multiply"/><rect width="12.69" height="16.44" x="818.17" y="309.31" fill="#E6E7E8" style="mix-blend-mode:multiply"/><rect width="12.69" height="16.44" x="818.17" y="338.61" fill="#E6E7E8" style="mix-blend-mode:multiply"/><rect width="12.69" height="16.44" x="839.39" y="367.91" fill="#E6E7E8" style="mix-blend-mode:multiply"/><rect width="12.69" height="16.44" x="818.17" y="426.51" fill="#E6E7E8" style="mix-blend-mode:multiply"/><rect width="12.69" height="16.44" x="839.39" y="426.51" fill="#E6E7E8" style="mix-blend-mode:multiply"/><rect width="12.69" height="16.44" x="641.46" y="225.9" fill="#E6E7E8" style="mix-blend-mode:multiply"/><rect width="12.69" height="16.44" x="579.89" y="303.62" fill="#E6E7E8" style="mix-blend-mode:multiply"/><rect width="12.69" height="16.44" x="603.39" y="303.62" fill="#E6E7E8" style="mix-blend-mode:multiply"/><rect width="12.69" height="16.44" x="579.89" y="336.7" fill="#E6E7E8" style="mix-blend-mode:multiply"/><rect width="12.69" height="16.44" x="626.89" y="336.7" fill="#E6E7E8" style="mix-blend-mode:multiply"/><rect width="12.69" height="16.44" x="650.38" y="336.7" fill="#E6E7E8" style="mix-blend-mode:multiply"/><rect width="12.69" height="16.44" x="603.39" y="369.77" fill="#E6E7E8" style="mix-blend-mode:multiply"/><rect width="12.69" height="16.44" x="579.89" y="402.84" fill="#E6E7E8" style="mix-blend-mode:multiply"/><rect width="12.69" height="16.44" x="626.89" y="402.84" fill="#E6E7E8" style="mix-blend-mode:multiply"/><rect width="12.69" height="16.44" x="650.38" y="402.84" fill="#E6E7E8" style="mix-blend-mode:multiply"/><rect width="12.69" height="16.44" x="579.89" y="468.99" fill="#E6E7E8" style="mix-blend-mode:multiply"/><rect width="12.69" height="16.44" x="626.89" y="468.99" fill="#E6E7E8" style="mix-blend-mode:multiply"/><rect width="22.85" height="29.59" x="189.03" y="392.93" fill="#E6E7E8" style="mix-blend-mode:multiply"/><rect width="70.06" height="7.62" x="262.5" y="241.07" fill="#E6E7E8"/><rect width="56.94" height="7.62" x="482.48" y="219.5" fill="#E6E7E8"/><rect width="56.94" height="7.62" x="482.48" y="235.93" fill="#E6E7E8"/><rect width="56.94" height="7.62" x="482.48" y="285.25" fill="#E6E7E8"/><rect width="56.94" height="7.62" x="710.62" y="270.55" fill="#E6E7E8"/><rect width="56.94" height="7.62" x="710.62" y="286.99" fill="#E6E7E8"/><rect width="56.94" height="7.62" x="710.62" y="319.86" fill="#E6E7E8"/><rect width="56.94" height="7.62" x="710.62" y="369.18" fill="#E6E7E8"/><rect width="56.94" height="7.62" x="710.62" y="402.05" fill="#E6E7E8"/><rect width="56.94" height="7.62" x="710.62" y="434.93" fill="#E6E7E8"/><rect width="56.94" height="7.62" x="710.62" y="467.8" fill="#E6E7E8"/><rect width="56.94" height="7.62" x="482.48" y="334.56" fill="#E6E7E8"/><rect width="56.94" height="7.62" x="482.48" y="367.44" fill="#E6E7E8"/><rect width="70.06" height="7.62" x="262.5" y="262.94" fill="#E6E7E8"/><rect width="70.06" height="7.62" x="262.5" y="284.8" fill="#E6E7E8"/><rect width="70.06" height="7.62" x="262.5" y="328.54" fill="#E6E7E8"/><rect width="70.06" height="7.62" x="262.5" y="372.27" fill="#E6E7E8"/><rect width="70.06" height="7.62" x="262.5" y="394.14" fill="#E6E7E8"/><rect width="70.06" height="7.62" x="262.5" y="437.88" fill="#E6E7E8"/><rect width="70.06" height="7.62" x="262.5" y="481.61" fill="#E6E7E8"/></g><path fill="#584AA8" d="M537.6,29.73l234.89-3.5c6.84,0,16.43-1.43,21.34,3.35,5.14,5,18.59,14,11.67,32.61l-94.75,584.3s-7.31,18-35.85,16.81l-247.71-4.59s-26.25-2.29-18.26-30.93L507.1,59.52s0-.39,0-1.09A30.5,30.5,0,0,1,537.6,29.73Z"/><path fill="#AAC8F9" stroke="#6259B0" stroke-miterlimit="10" d="M578.35,471.35a67,67,0,0,1,17.95-37.18c10.89-11.35,29-22.62,55.56-16.14,0,0,35.67,8.19,29.24,46.2,0,0-8,44.14-52.42,50.66a54,54,0,0,1-27.12-2.71C589.29,507.49,574.89,496.59,578.35,471.35Z"/><path fill="#AAC8F9" stroke="#6259B0" stroke-miterlimit="10" d="M527.56,18H771a27,27,0,0,1,18.87,7.45c5.26,5.12,9.36,13,4.68,24.12L697.47,646.09s0,19.89-29.24,18.72l-253.79-4.68s-26.9-2.34-18.72-31.58L496.31,48.44s0-.4,0-1.11A31.19,31.19,0,0,1,527.56,18Z"/><path fill="#D2E1F9" d="M571.55,31.29l-51.85.78s-10.53-2.34-12.87,18.71L406.25,629.72s-5.85,17.54,16.37,17.54h242.1s21.06,2.34,19.89-25.73L782.85,47.27s6.63-18.71-14-15.2L732.56,30.9l-11.7,18.32a13.48,13.48,0,0,1-13.64,7.41l-127.09-.39a11.09,11.09,0,0,1-9.36-10.91Z"/><path fill="#584AA8" d="M618.72,77.17s-92.92,13.67-92.85,120.3a88.75,88.75,0,0,0,21.6,58.62C561,271.49,582.05,284.64,613,277.9a88.2,88.2,0,0,0,30.89-13.51c21.65-14.8,65.3-52.36,59-111.33C702.92,153.06,696.69,64.7,618.72,77.17Z"/><path fill="#AAC8F9" stroke="#6259B0" stroke-miterlimit="10" d="M543.26,290.57l94.5.4a17,17,0,0,1,10.36,3.43c3.17,2.45,6.12,6.52,5.93,13.18l-2.49,14.52s-2.91,14.94-14.94,13.69H545.34s-10.09.58-14.65-9.07a18.19,18.19,0,0,1-1.41-10.57l1.85-11.9a17.23,17.23,0,0,1,5.62-10.42A14,14,0,0,1,543.26,290.57Z"/><polygon fill="#FFF" points="584.33 326.86 576.58 314.82 577.16 314.45 584.35 325.64 601.9 300.74 602.46 301.14 584.33 326.86"/><polygon fill="#E6E7E8" points="599.88 399.32 623.69 399.32 630.7 362.21 608.29 362.21 599.88 399.32"/><polygon fill="#E6E7E8" points="660.11 398.62 667.11 360.81 692.32 361.51 684.62 400.72 660.11 398.62"/><path fill="#E6E7E8" d="M654.51,361.51l-7.71,42.71s49,7,46.22,54.63h18.91l-1.4,11.9-18.21-.7a81.26,81.26,0,0,1-22.41,38.51l28,34.22L695.13,558l-35.47-42.5s-12.87,12.09-34.7,12.87L604.3,646.87l-13.65.39L612.48,528s-50.68-6.63-47.17-56.92l-60.23.78S461.8,474.17,426.72,511l17.54-102.92s14,49.7,56.14,50.29l66.67.58s9.35-23.39,19.29-31L542.5,372.42l-4.09-9.95,12.28-.58,44.45,57.31s24.56-17,39.76-14l7.21-42.49Z"/><path fill="#E6E7E8" d="M611.51,645.8l19.3-111.4s18.42-1.75,27.19-9.65l35.09,47.37-9.65,61.4s-3.22,14.33-18.72,13.74Z"/><polygon fill="#E6E7E8" points="565.9 604.58 579.05 537.91 600.11 538.79 588.7 605.45 565.9 604.58"/><polygon fill="#E6E7E8" points="559.76 639.66 581.68 640.54 585.19 616.86 564.14 616.86 559.76 639.66"/><path fill="#E6E7E8" d="M457.13,359s16.66,5.27,25.43,4.39c0,0-17.83,60.53,31.88,63.74l-2.05,21.35s-63.16-8.77-57.9-50.88Z"/><polygon fill="#E6E7E8" points="520.87 446.68 524.96 426.8 558.88 426.21 555.37 447.85 520.87 446.68"/><path fill="#E6E7E8" d="M456.54,597s-1.17,27.49,25.73,28.07c0,0,11.84,1.32,24.18-10.61a48.44,48.44,0,0,0,13.78-26.07l7-38.06a24.75,24.75,0,0,0-4.62-19.7c-3.92-5-10.3-9.19-20.49-7.31,0,0-28.06-1.17-35.67,22.22Z"/><path fill="#D2E1F9" d="M590.71,470.49a49.74,49.74,0,0,1,13-27.45c7.91-8.38,21.07-16.69,40.35-11.92,0,0,25.9,6.05,21.23,34.11,0,0-5.83,32.59-38.07,37.4a38.6,38.6,0,0,1-19.69-2C598.65,497.16,588.2,489.12,590.71,470.49Z"/><path fill="#AAC8F9" stroke="#6259B0" stroke-miterlimit="10" d="M611.44,69.9s-92.92,13.66-92.85,120.3a88.75,88.75,0,0,0,21.6,58.62c13.51,15.39,34.59,28.55,65.56,21.8a88.05,88.05,0,0,0,30.88-13.51c21.65-14.8,65.31-52.36,59-111.33C695.65,145.78,689.41,57.42,611.44,69.9Z"/><path fill="#D2E1F9" d="M611.13,81.09s-85.78,12.12-85.72,106.7a77,77,0,0,0,20,52c12.47,13.65,31.92,25.32,60.51,19.33a83,83,0,0,0,28.52-12c20-13.13,60.29-46.44,54.48-98.73C688.87,148.4,683.11,70,611.13,81.09Z"/><path fill="#FFF" d="M554.2,144.93s-.58-69,66.67-53.21c0,0,18.12-14,24,8.77,0,0,35.67,5.26,40.94,50.88,0,0,2.34,34.5-22.81,52.63a43.86,43.86,0,0,0-18.13,19.88s-9.35,36.84-40.93,28.65a47,47,0,0,1-21.64-16.37s-5.26-5.85-14.62-3.51c0,0-33.92,1.17-34.5-31.58,0,0-1.17-14,11.69-27.48,0,0-9.35-7.6-4.67-17.55C540.17,156,541.92,146.1,554.2,144.93Z"/><path fill="#D2E1F9" d="M600.52,129.37c-3.35,4.26-8.27,6.61-13.26,5.73-7.8-1.38-12.78-10.14-11.12-19.58s9.34-16,17.14-14.6,12.79,10.14,11.13,19.58a20.08,20.08,0,0,1-3.89,8.87"/><path fill="#D2E1F9" d="M643.37,170.75c-4,3.76-9.37,5.37-14.37,3.75-7.83-2.52-11.77-12-8.81-21.16s11.7-14.54,19.53-12,11.77,12,8.81,21.17a19.42,19.42,0,0,1-5.16,8.26"/><path fill="#D2E1F9" d="M585.59,208.84c-4.82,4.75-11.23,6.86-17.13,5-9.24-3-13.73-14.7-10-26.15s14.19-18.33,23.43-15.34,13.74,14.69,10,26.15a25.51,25.51,0,0,1-6.3,10.38"/><path fill="#D2E1F9" d="M559.46,135s19.11,22.42,30.22,24.56c0,0,11.3,1.56,14.81-3.12l1.56,1.56s-6.63,5.46-17,3.12c0,0-15.4,17.16-25.73-5.07A85.11,85.11,0,0,1,559.46,135Z"/><path fill="#D2E1F9" d="M641.92,105.36s-10.72,7.22-19.88,7c0,0-19.69-.58-8.19,21.64,0,0-1.56,9.94,1.95,15.2l1.36-.39s-2.92-6.63-1.75-11.89c0,0,14.23,5.26,22.8-11.5C638.21,125.44,641.33,118.81,641.92,105.36Z"/><path fill="#D2E1F9" d="M601.1,215.54s7.71-29.18,37.58-30.58c0,0,27.78-4.9,14.24-18.67l1.64-2.1s7.23,8.63,1.4,14.93c0,0-4.91,5.61-16.34,7.24,0,0,6.77,24.28-11,25.21C628.65,211.57,614.17,211.34,601.1,215.54Z"/><path fill="#AAC8F9" d="M577.53,189.63l4-9.34s.93-3.73,4.2-1.63c0,0,6.89,5.38,4.74,14.08a3.93,3.93,0,0,1-2.07,2.65,4,4,0,0,1-3.14.07l-7-1.63S575.89,192.43,577.53,189.63Z"/><path fill="#AAC8F9" d="M575.19,189.63l-.7-9.57s-.46-4-5.13-1.17c0,0-7.24,6.54-7.7,14.47,0,0-.94,3,2.8,2.34l7.47-1.87S575.66,192.2,575.19,189.63Z"/><path fill="#AAC8F9" d="M573.33,195.7l-7.24,8.63s-2.33,3.27,2.34,5.14c0,0,6.76,1.87,12.13-1.4a4.53,4.53,0,0,0,.94-5.37l-4.67-7.7S575,193.13,573.33,195.7Z"/><ellipse cx="567.14" cy="244.71" fill="#FFF" rx="7.82" ry="7.7"/><polygon fill="#AAC8F9" stroke="#6259B0" stroke-miterlimit="10" points="388.71 606.93 386.25 607.43 390.19 615.79 411.33 607.43 409.85 602.51 388.71 606.93"/><polygon fill="#AAC8F9" stroke="#6259B0" stroke-miterlimit="10" points="465.12 478.07 462 469.49 436.27 480.01 439.78 487.42 465.12 478.07"/><polyline fill="#AAC8F9" stroke="#6259B0" stroke-miterlimit="10" points="301.67 284.87 271.75 301.66 266.49 297.27 267.95 295.22 299.5 278.37"/><line x1="180.66" x2="281.8" y1="416.71" y2="534.23" fill="none" stroke="#6259B0" stroke-miterlimit="10"/><line x1="535.49" x2="564.44" y1="526.8" y2="429.32" fill="none" stroke="#6259B0" stroke-miterlimit="10"/><line x1="514.44" x2="539.87" y1="427.09" y2="405.16" fill="none" stroke="#6259B0" stroke-miterlimit="10"/><path fill="none" stroke="#6259B0" stroke-miterlimit="10" d="M546.6,428.55l20.47.88,20.17-12.28s4.68-9.36-5.55-9.94l-94.18-4.55a7.26,7.26,0,0,0-4.69,1.44l-26.28,19.78Z"/><path fill="#D1D3D4" d="M480.4,435s54.4-26.09,106,45.53c0,0,51.08,65.51,17.77,141L615.86,611s6.1-33.86,4.44-55c0,0-5-56.07-31.09-86C589.21,470,530.92,391.72,480.4,435Z"/><polyline fill="#AAC8F9" stroke="#6259B0" stroke-miterlimit="10" points="284.88 416.61 283.83 524.46 279.16 528.75 277.72 414.5"/><path fill="#D1D3D4" d="M223.49,431.16s59.05-38.74,119,51.75c0,0,55.21,77.07,3.78,158.25,0,0,27.71-11.86,30.05-78.49,0,0-7-78.69-54.38-120.62C322,442.05,269.47,391.44,223.49,431.16Z"/><path fill="#FCBAEB" stroke="#351D66" stroke-miterlimit="10" d="M381.25,601.65s6.29,11.31,32,.39c0,0,19.88-3.9,23.39-37.43l-15.6-1.94L388.32,591.9S380.08,595.66,381.25,601.65Z" data-primary="true"/><path fill="#F9C7A5" d="M356,312.77l.71,67.42s14.88,45.49,57.82,120.31c0,0,1.7,19.13-26.78,25.93L324.36,411.22S315.44,384,315,368.28l-7.65-56.11Z"/><g clip-path="url(#a291636e-f8ca-4a46-8c1e-e2486c4851f7)"><path fill="#F7A091" d="M400.4,510.42S318.21,354.75,334,309.64l22.82-.92s-1,90.38,42.17,160.67l23.1,43.17Z"/></g><path fill="none" stroke="#351D66" stroke-miterlimit="10" d="M356,312.77l.71,67.42s14.88,45.49,57.82,120.31c0,0,1.7,19.13-26.78,25.93L324.36,411.22S315.44,384,315,368.28l-7.65-56.11Z"/><polygon fill="#F9D067" points="355.96 312.77 303.33 312.77 286.17 242.2 357.13 236.35 355.96 312.77" data-secondary="true"/><g clip-path="url(#a040f302-f8d5-43d2-8df8-a83440e6b9dc)"><polygon points="286.17 242.2 291.48 264.03 293.01 263.6 299.96 242.82 286.17 242.2" opacity=".2"/></g><polygon fill="none" stroke="#351D66" stroke-miterlimit="10" points="355.96 312.77 303.33 312.77 286.17 242.2 357.13 236.35 355.96 312.77"/><polygon fill="#E6E7E8" stroke="#351D66" stroke-miterlimit="10" points="387.71 526.43 391.96 540.46 417.89 527.28 414.49 500.5 387.71 526.43"/><path fill="#251860" d="M389.1,596.58c36.64,12.87,40.7-25.93,40.7-25.93,5.52-25.94-11.91-43.37-11.91-43.37L392,540.46l.85,42.09-11.14,14.38a5,5,0,0,0-1.09,3,1.93,1.93,0,0,0,.67,1.72S381.45,593.42,389.1,596.58Z"/><line x1="433.95" x2="534.9" y1="564.45" y2="549.31" fill="none" stroke="#6259B0" stroke-miterlimit="10"/><line x1="538.7" x2="584.61" y1="537.62" y2="407.5" fill="none" stroke="#6259B0" stroke-miterlimit="10"/><line x1="480.52" x2="513.85" y1="425.05" y2="403.41" fill="none" stroke="#6259B0" stroke-miterlimit="10"/><line x1="539.87" x2="569.7" y1="428.55" y2="406.62" fill="none" stroke="#6259B0" stroke-miterlimit="10"/><polygon fill="#AAC8F9" stroke="#6259B0" stroke-miterlimit="10" points="519.68 524.85 438.75 414.08 440.46 402.77 523.79 525.53 519.68 524.85"/><path fill="#584AA8" d="M550.9,429.47s-50.52-26.65-86,6.11c0,0-57.42,51,.48,157.81a111,111,0,0,0,10.52,15.92c15.15,19.1,54.46,61.31,96.15,46.11,0,0,47.19-10,52.74-77.72C624.74,577.7,633.07,486.65,550.9,429.47Zm-2.77,217.07c-65.51-8.88-92.72-97.15-92.72-97.15-27.2-84.94,25-114.37,25-114.37,27.2-22.76,64.4,0,64.4,0,73.83,39.42,74.39,129.36,74.39,129.36C617.52,657.64,548.13,646.54,548.13,646.54Z"/><path fill="#584AA8" d="M366.82,504.3c-18.42-47.06-53.43-80.44-89.22-89.79-15.33-4-30.79-3.6-45.16,2C184.53,435.27,167,505,193.3,572.19S279.77,678.71,327.68,660,393.12,571.53,366.82,504.3ZM341.59,645.1A58.19,58.19,0,0,1,327.48,653c-43.24,16.92-98.42-20.81-123.24-84.27-20.87-53.34-13.65-107.89,14.88-134a59.21,59.21,0,0,1,18.46-11.55c43.24-16.91,98.41,20.81,123.24,84.26C382.71,563.47,373.69,620.75,341.59,645.1Z"/><polygon fill="#AAC8F9" stroke="#6259B0" stroke-miterlimit="10" points="394.2 614.23 442.04 480.78 444.92 482.7 397.82 612.95 394.2 614.23"/><path fill="#AAC8F9" stroke="#6259B0" stroke-miterlimit="10" d="M398.06,307.21s-2.34,5.26,10.24,4.68c0,0,6.43-.58,9.94,1.75,0,0,23.68,18.13,32.16,12l24.27-17s-19,13.16-35.67,2.05l-20.76-7.31S403.62,299.32,398.06,307.21Z"/><path fill="#584AA8" d="M398.06,307.21s-.8-11,11-10.9a11.55,11.55,0,0,1,2.8.41c5.21,1.39,26.32,6.34,39.56,0a56.76,56.76,0,0,1,6.28-2.65c7.75-2.62,22.92-6.19,27.2,4.22a4.13,4.13,0,0,1-1.65,5l-8.55,5.4-7.7,4.06A31.28,31.28,0,0,1,448,316l-30.61-4.4Z"/><polygon fill="#F9C7A5" points="186.33 255.53 195.63 282.82 229.12 284.06 217.34 243.75 186.33 255.53"/><g clip-path="url(#e7554370-b2fd-418d-96f6-b156169340dc)"><path fill="#F7A091" d="M187.41,258.72a50.24,50.24,0,0,0,35.82,5.19L218.15,246S205.78,257.94,187.41,258.72Z"/></g><polygon fill="none" stroke="#351D66" stroke-miterlimit="10" points="186.33 255.53 195.63 282.82 229.12 284.06 217.34 243.75 186.33 255.53"/><path fill="none" stroke="#231F20" stroke-miterlimit="10" d="M276.72,281.19s5.85,15.5,14,16.08"/><path fill="none" stroke="#231F20" stroke-miterlimit="10" d="M284,279.73s5,16.08,12.28,16.08"/><path fill="none" stroke="#231F20" stroke-miterlimit="10" d="M290.17,275.93,296.76,288a7.15,7.15,0,0,0,12.89-.7,2,2,0,0,0,.11-.26"/><path fill="none" stroke="#231F20" stroke-miterlimit="10" d="M301.87,294.35h13.45s11.69,7.6,12.86,0c0,0,.59-2.64-5-2.34l-17.54.58Z"/><path fill="#AAC8F9" stroke="#6259B0" stroke-miterlimit="10" d="M277.72,414.51l-.12-9.74s0-5.45,9.35-11.3l2.34-19.11,145.42,11.12,5.55-64.36a3.8,3.8,0,0,1,3.79-3.48h0a3.81,3.81,0,0,1,3.8,4.1l-4.76,62.57c14-9,18.91,2.72,18.91,2.72l22,47.18,49.41,92.73-3.61,1L455,393.08c-2.73-5.46-5.46-2.73-5.46-2.73l-8.18,5.46-9,102.14-7.8-3.12,7-102.14-134.5-9.75-.78,4.68s12.48-3.9,11.7,6.24l-.35,10.26a3.32,3.32,0,0,0,1,2.45l96.45,96.06-4.68,7.79-93.95-94.73-10.53,115.4-2.73-4.29,7.32-115.14a3.22,3.22,0,0,0-.91-2.46l-7.16-7.44a3.45,3.45,0,0,0-4.37-.51l-.73.46A5.13,5.13,0,0,0,285,406l-.1,10.62"/><path fill="#F9D067" d="M207.42,142.79S246,75,275.26,66.77c0,0,17.54-6.24,12.86,24.56,0,0-24.24-13.44-68.22,43.66,0,0,44.83-47.17,60.82-29.24,0,0,32.35,28.46,66.66,10.92,0,0,25.91-11.31,45.6-31.47a61.81,61.81,0,0,1,8.53-7.3c5-3.56,11.24-6.78,12.15-1.78,0,0-2.73,13.26-6.24,16.77,0,0-9.75-7.8-33.14,12.08,0,0-9.74,6.63-28.85,35.87,0,0-12.47,20.27-28.46,32.75L219.51,161.5,204.44,152Z" data-secondary="true"/><g clip-path="url(#bb76a287-f085-4c5c-8199-f90ae6ff498f)"><path d="M213.57,154.3a55.87,55.87,0,0,1,9.17-10.14,50.25,50.25,0,0,1,11.43-7.58,39,39,0,0,1,26.94-2.75h0l.05,0a164.86,164.86,0,0,0,20.43,7.53,141.7,141.7,0,0,0,21.25,4.71,92.35,92.35,0,0,0,21.72.69,64.92,64.92,0,0,0,10.7-1.94,54.22,54.22,0,0,0,10.13-4,50.66,50.66,0,0,1-10,4.31,59.38,59.38,0,0,1-10.73,2.19,78.69,78.69,0,0,1-11,.47,92.87,92.87,0,0,1-10.93-.86,142.4,142.4,0,0,1-21.42-4.63c-3.51-1-7-2.18-10.4-3.45s-6.82-2.63-10.15-4.18l.09,0a39.43,39.43,0,0,0-13.42-1.09,40,40,0,0,0-13,3.53A52.05,52.05,0,0,0,223,144.45,57.81,57.81,0,0,0,213.57,154.3Z" opacity=".2"/><path d="M233.59,122.15a76.91,76.91,0,0,1,32.19-4.55l2.05.14c.68.05,1.36.17,2,.25l2,.29a17,17,0,0,1,2,.34l4,.87c1.32.35,2.63.77,3.94,1.15a35.67,35.67,0,0,1,3.88,1.36c1.27.51,2.58,1,3.81,1.52,2.49,1,5,2,7.61,2.84A82.08,82.08,0,0,0,313,129.79a90.69,90.69,0,0,0,16.22.63,62.61,62.61,0,0,0,15.95-2.87A46.31,46.31,0,0,0,359.55,120a44.91,44.91,0,0,1-14.2,8,62.76,62.76,0,0,1-16.06,3.18,85.42,85.42,0,0,1-16.38-.5,82.35,82.35,0,0,1-16-3.38c-2.61-.86-5.16-1.84-7.68-2.91-1.25-.58-2.51-1-3.77-1.53a36.79,36.79,0,0,0-3.81-1.37,69.91,69.91,0,0,0-15.89-3.14,78.64,78.64,0,0,0-16.23.29A76.06,76.06,0,0,0,233.59,122.15Z" opacity=".2"/><path d="M288.12,91.33A16.73,16.73,0,0,0,277,82.55a19,19,0,0,0-7.24,0,29.18,29.18,0,0,0-6.92,2.31,59.2,59.2,0,0,0-12.26,8,34.89,34.89,0,0,0-2.73,2.45c-.88.85-1.76,1.71-2.63,2.58-1.74,1.74-3.45,3.52-5.12,5.32a170.41,170.41,0,0,0-18.38,23,88.54,88.54,0,0,0-7.12,12.9,49.82,49.82,0,0,0-4.14,14.11,47.78,47.78,0,0,1,3.69-14.31A89.62,89.62,0,0,1,221,125.83a131.62,131.62,0,0,1,8.63-12.07c3.07-3.88,6.31-7.62,9.67-11.24,1.69-1.81,3.42-3.57,5.18-5.31.88-.87,1.76-1.74,2.66-2.58A32.93,32.93,0,0,1,250,92.15c1-.78,1.93-1.57,2.94-2.28l1.51-1.1,1.55-1c1-.71,2.11-1.3,3.18-1.94s2.19-1.18,3.35-1.65a29.49,29.49,0,0,1,7.12-2.24,19.12,19.12,0,0,1,7.46.17A16.71,16.71,0,0,1,288.12,91.33Z" opacity=".2"/></g><path fill="none" stroke="#351D66" stroke-miterlimit="10" d="M207.42,142.79S246,75,275.26,66.77c0,0,17.54-6.24,12.86,24.56,0,0-24.24-13.44-68.22,43.66,0,0,44.83-47.17,60.82-29.24,0,0,32.35,28.46,66.66,10.92,0,0,25.91-11.31,45.6-31.47a61.81,61.81,0,0,1,8.53-7.3c5-3.56,11.24-6.78,12.15-1.78,0,0-2.73,13.26-6.24,16.77,0,0-9.75-7.8-33.14,12.08,0,0-9.74,6.63-28.85,35.87,0,0-12.47,20.27-28.46,32.75L219.51,161.5,204.44,152Z"/><path fill="#F9C7A5" d="M353.7,288.79,340.94,313l93.53,81.2s11.06,9.78,5.95,20.4c0,0-5.1-2.12-12.75,4.26,0,0-7.23,1.7-9.78,4.25L313.73,349.58s-37.41-21.68-11.47-59.52l14.88-24.66,23.8-5.95Z"/><g clip-path="url(#a78bbba6-fa04-450c-a57d-23f24ec00849)"><path fill="#F7A091" d="M336,275.56,323.7,321.17l117.54,86-2.92-21.64L350.6,307.72,356,290.55S340.08,276.15,336,275.56Z"/></g><path fill="none" stroke="#351D66" stroke-miterlimit="10" d="M353.7,288.79,340.94,313l93.53,81.2s11.06,9.78,5.95,20.4c0,0-5.1-2.12-12.75,4.26,0,0-7.23,1.7-9.78,4.25L313.73,349.58s-37.41-21.68-11.47-59.52l14.88-24.66,23.8-5.95Z"/><path fill="#251860" d="M417.89,423.13s-5,2.7-3.45,6.2c0,0,8.18,26.9,9,37l-8.18,17.93s-1.08,3.61,1.56,3.9c0,0,.29-10.23,10.81-7.31,0,0,26.9,3.8,29.83-18.42,0,0-2.93-40.35,3.8-53.21,0,0-17.84-16.38-25.44-12.87,0,0,10.16,8.69,4.64,18.23a14.41,14.41,0,0,0-12.75,4.26S419.59,420.33,417.89,423.13Z"/><path fill="#FCBAEB" stroke="#351D66" stroke-miterlimit="10" d="M416.78,488.2s5.26,5.56,16.66.59c0,0,15.21-7,19.3-10.53,0,0,5.56-2.34,8.48-16.08,0,0,2.34-25.73,2.63-31.58,0,0,6.43-6.72,3.8-17.83a6.17,6.17,0,0,0-6.43-3.51s-7.89,18.42-3.22,54.09c0,0-3.51,15.5-19.59,17.25,0,0-6.72,1.17-10.82.29C427.59,480.89,417.36,477.09,416.78,488.2Z" data-primary="true"/><path fill="#F9D067" d="M271.75,241.42,303.33,243l9.74,19.89s34.7,16.37,42.89,27.68l27.8-51.49a37.55,37.55,0,0,0,3.34-27.83c-3.42-12.25-14-25.51-43.62-26.34L307.23,197Z" data-secondary="true"/><g clip-path="url(#fccc37fe-0993-4b8a-a9f6-621f0ae9e8a3)"><path d="M346,193a56.51,56.51,0,0,1,19.5,4.76A22.94,22.94,0,0,1,378,223.5c-2.78,12.27-10,37.55-26.58,62.2a29.44,29.44,0,0,1,4.58,4.85l25.49-47.3S398,219.81,380,198.37c0,0-6.83-11.94-36.56-13.48Z" opacity=".2"/></g><path fill="none" stroke="#351D66" stroke-miterlimit="10" d="M271.75,241.42,303.33,243l9.74,19.89s34.7,16.37,42.89,27.68l27.8-51.49a37.55,37.55,0,0,0,3.34-27.83c-3.42-12.25-14-25.51-43.62-26.34L307.23,197Z"/><path fill="#F9C7A5" d="M290.85,192.3l22.72,6.46L293,263.6s-26.67,6.82-21.71,18l7.47,17.74s7.89,1.17,12-2.05l3.51-1.17s11.79-1.5,14.82-6.34a3.22,3.22,0,0,0-.46-3.91l-4.3-4.5a4.09,4.09,0,0,1-1-4,3.81,3.81,0,0,1,3-2.58l12.28-7,17.9-48.11c2.07-5.56,4.33-11,6.65-16.49a33.7,33.7,0,0,0,2.47-8.66,17.62,17.62,0,0,0-9.25-17.73L306,160.43Z"/><g clip-path="url(#b845e836-c95a-43ed-aabb-3b20dc82601a)"><path fill="#F7A091" d="M306.45,168s29.53,9.65,29.82,24.85l-17.74,74.93,24.55-64.6s8.73-18.49-6.78-26.39L306,160.43S306.45,164.74,306.45,168Z"/></g><path fill="none" stroke="#351D66" stroke-miterlimit="10" d="M290.85,192.3l22.72,6.46L293,263.6s-26.67,6.82-21.71,18l7.47,17.74s7.89,1.17,12-2.05l3.51-1.17s11.79-1.5,14.82-6.34a3.22,3.22,0,0,0-.46-3.91l-4.3-4.5a4.09,4.09,0,0,1-1-4,3.81,3.81,0,0,1,3-2.58l12.28-7,17.9-48.11c2.07-5.56,4.33-11,6.65-16.49a33.7,33.7,0,0,0,2.47-8.66,17.62,17.62,0,0,0-9.25-17.73L306,160.43Z"/><path fill="#FCBAEB" d="M220.73,158.68l15.15-10s12.48-8.58,24.17-5.07l45.62,14.81s2.34,5.46-.39,13.26c0,0-6.63,17.93-14.43,20.66L307.23,197s1.17,24.56-35.48,44.44c0,0-16.37,7.8-23.78-1.95,0,0-17.55,10.92-30.41,7.41,0,0-17.54,14.82-37.43,11.31l-12.08-43.28s-2.71-18,7.87-22.81L204.44,152Z" data-primary="true"/><g clip-path="url(#fde6349b-4102-4479-ae09-c35e50e7025d)"><path d="M248,239.47s46.38-17.42,53.87-44.49l5.39,2s0,26.41-35.48,44.44C271.75,241.42,255,249.77,248,239.47Z" opacity=".2"/></g><path fill="none" stroke="#351D66" stroke-miterlimit="10" d="M220.73,158.68l15.15-10s12.48-8.58,24.17-5.07l45.62,14.81s2.34,5.46-.39,13.26c0,0-6.63,17.93-14.43,20.66L307.23,197s1.17,24.56-35.48,44.44c0,0-16.37,7.8-23.78-1.95,0,0-17.55,10.92-30.41,7.41,0,0-17.54,14.82-37.43,11.31l-12.08-43.28s-2.71-18,7.87-22.81L204.44,152Z"/><path fill="#F9C7A5" d="M182.57,185.11l14.89,9.47s-.33,14.95,9,13c0,0,18.94-1.66,23.26-35.9,0,0,.67-15.62-9-13L198.56,147.3Z"/><g clip-path="url(#bb87697a-fc5d-40cb-a980-737ecbb26cec)"><path fill="#F7A091" d="M204.44,152s8.31,40.22-6.65,47.86c0,0-1-1.32-.33-5.31l-11-7.32S197.79,180.28,204.44,152Z"/></g><path fill="none" stroke="#351D66" stroke-miterlimit="10" d="M182.57,185.11l14.89,9.47s-.33,14.95,9,13c0,0,18.94-1.66,23.26-35.9,0,0,.67-15.62-9-13L198.56,147.3Z"/><ellipse cx="167.55" cy="155.82" fill="#F9C7A5" stroke="#351D66" stroke-miterlimit="10" rx="24.72" ry="37.23" transform="translate(-30.74 41.65) rotate(-12.99)"/><path fill="#FCBAEB" d="M179.33,129.31a82.16,82.16,0,0,1-15.77-2.5s-27.19-3.51-28.65,16.66c0,0-6.91-7.3.51-22.71a48.39,48.39,0,0,1,14.7-17.62c6-4.51,15.06-10.11,25-12.24,15.57-3.34,31.65,6.51,35.21,22,1.89,8.21,1.62,19.37-4.09,34.06,0,0-9.65,38.89-22.51,40.94,0,0,11.7-11.12,9.06-32.17,0,0-2.05-14-9.54-24.3A5.29,5.29,0,0,0,179.33,129.31Z" data-primary="true"/><g clip-path="url(#e7d11cdb-b7e8-4ec6-a228-1d4493df5a80)"><path d="M134.9,143.28s-6.07-7.19-.7-10.64c0,0,18.77-18.78,38.69-12.65,0,0,9.15.89,8.79,9.26a95.26,95.26,0,0,1-10.52-.88S137.9,118.68,134.9,143.28Z" opacity=".2"/></g><path fill="none" stroke="#351D66" stroke-miterlimit="10" d="M179.33,129.31a82.16,82.16,0,0,1-15.77-2.5s-27.19-3.51-28.65,16.66c0,0-6.91-7.3.51-22.71a48.39,48.39,0,0,1,14.7-17.62c6-4.51,15.06-10.11,25-12.24,15.57-3.34,31.65,6.51,35.21,22,1.89,8.21,1.62,19.37-4.09,34.06,0,0-9.65,38.89-22.51,40.94,0,0,11.7-11.12,9.06-32.17,0,0-2.05-14-9.54-24.3A5.29,5.29,0,0,0,179.33,129.31Z"/><path fill="#F9D067" d="M134.44,148.73c-.27-3.85-.25-19,16.06-21.34a39.82,39.82,0,0,1,20.67,1.17S161,130.9,156.74,139.67c0,0-7.49,15.17-21.37,10.26A1.35,1.35,0,0,1,134.44,148.73Z" data-secondary="true"/><g clip-path="url(#b3f7225e-5f9a-4c28-a72f-f6f751f87208)"><path d="M171.17,128.56a17.15,17.15,0,0,0-5.25-.11,14.85,14.85,0,0,0-5,1.5,20.69,20.69,0,0,0-4.29,2.89,21.9,21.9,0,0,0-3.47,3.81l0,0h0l-1.82,2.25c-.62.74-1.29,1.44-1.93,2.16s-1.38,1.36-2.07,2-1.45,1.29-2.25,1.83a22.86,22.86,0,0,1-5,2.92,14.36,14.36,0,0,1-2.79.81,7.5,7.5,0,0,1-2.87,0,11,11,0,0,0,5.45-1.32,22.35,22.35,0,0,0,4.73-3.08c.75-.57,1.42-1.25,2.13-1.87s1.34-1.34,2-2,1.27-1.4,1.88-2.13l1.78-2.22,0,0a21.17,21.17,0,0,1,3.69-4,19,19,0,0,1,4.59-2.85,15.07,15.07,0,0,1,5.22-1.3A15.74,15.74,0,0,1,171.17,128.56Z" opacity=".2"/><path d="M135,141.3a14.11,14.11,0,0,0,3.62-.11,11.68,11.68,0,0,0,3.41-1,10.85,10.85,0,0,0,2.9-2,14.55,14.55,0,0,0,1.19-1.29c.32-.48.69-.95,1-1.45a12.14,12.14,0,0,0,.74-1.59c.21-.54.38-1.16.66-1.74a9.39,9.39,0,0,1,2.28-3,10.12,10.12,0,0,1,3.24-1.9,12.74,12.74,0,0,1,3.64-.65,12.06,12.06,0,0,0-6.35,3.11,9.52,9.52,0,0,0-1.95,2.88c-.23.52-.38,1.08-.61,1.69A11.73,11.73,0,0,1,148,136a11.29,11.29,0,0,1-5.64,4.92A11.89,11.89,0,0,1,135,141.3Z" opacity=".2"/></g><path fill="none" stroke="#351D66" stroke-miterlimit="10" d="M134.44,148.73c-.27-3.85-.25-19,16.06-21.34a39.82,39.82,0,0,1,20.67,1.17S161,130.9,156.74,139.67c0,0-7.49,15.17-21.37,10.26A1.35,1.35,0,0,1,134.44,148.73Z"/><polygon fill="#F9D067" stroke="#351D66" stroke-miterlimit="10" points="197.87 125.25 189.49 128.56 195.73 147.08 199.04 143.57 197.87 125.25" data-secondary="true"/><ellipse cx="200.5" cy="149.22" fill="#F9C7A5" stroke="#351D66" stroke-miterlimit="10" rx="4.78" ry="8.97"/><path fill="#F9D067" d="M156.35,121.15l14.31,7.16a.35.35,0,0,0,.5-.32c-.07-2.08-.82-9.22-7.79-11.71C163.37,116.28,159.08,115.69,156.35,121.15Z" data-secondary="true"/><g clip-path="url(#be6ab87b-bf93-4eaf-a773-c993dd896fa8)"><path d="M156.35,121.15a8,8,0,0,1,9.36-.56,11.94,11.94,0,0,1,3.47,3.54c.4.71.81,1.42,1.15,2.15s.59,1.51.84,2.28c-.46-.68-.85-1.37-1.27-2s-.92-1.29-1.36-1.94a13.88,13.88,0,0,0-3.36-3.14,8.29,8.29,0,0,0-4.28-1.29A10.37,10.37,0,0,0,156.35,121.15Z" opacity=".2"/></g><path fill="none" stroke="#351D66" stroke-miterlimit="10" d="M156.35,121.15l14.31,7.16a.35.35,0,0,0,.5-.32c-.07-2.08-.82-9.22-7.79-11.71C163.37,116.28,159.08,115.69,156.35,121.15Z"/><ellipse cx="288.76" cy="534.89" fill="#AAC8F9" stroke="#6259B0" stroke-miterlimit="10" rx="10.43" ry="13.55" transform="translate(-149.6 113.78) rotate(-17.79)"/><ellipse cx="288.76" cy="534.89" fill="#629AED" rx="4.88" ry="6.34" transform="translate(-149.6 113.78) rotate(-17.79)"/><path fill="#AAC8F9" stroke="#6259B0" stroke-miterlimit="10" d="M525.41,535.14l4.81.14,1.87-8.87S454.79,504,432.27,499.9l15.94,31.31s32.94-7.38,77.2,3.93"/><ellipse cx="423.58" cy="529.56" fill="#AAC8F9" stroke="#6259B0" stroke-miterlimit="10" rx="26.31" ry="36.39" transform="translate(-133.28 142.58) rotate(-16.55)"/><ellipse cx="424.53" cy="530.21" fill="#629AED" rx="9.36" ry="12.48" transform="translate(-98.04 96.31) rotate(-11.61)"/><ellipse cx="534.52" cy="538.05" fill="#AAC8F9" stroke="#6259B0" stroke-miterlimit="10" rx="8.95" ry="11.89" transform="translate(-98.87 120.88) rotate(-11.82)"/><ellipse cx="534.9" cy="537.62" fill="#629AED" rx="3.8" ry="4.09"/><path fill="#AAC8F9" stroke="#6259B0" stroke-miterlimit="10" d="M306.45,275.06l11.46-7a3.27,3.27,0,0,0,1.35-1.45c.53-1.2.26-2.83-6.29-1.65a3,3,0,0,1-1.08,0l-.25-.05a11.17,11.17,0,0,0-12.73,13l3,16.36s4.38,11.11,14.32,11.11l14.81.71a3.18,3.18,0,0,1,3,3.47h0a3.18,3.18,0,0,1-3.12,2.87l-12,.17a24.66,24.66,0,0,1-15-4.74c-4.19-3.08-8.4-7.72-9.1-14.18l-3-16.25a16.88,16.88,0,0,1,2-11.64,15.11,15.11,0,0,1,11-7.78l12.08-.23a10.77,10.77,0,0,1,8.44,3.7,6.62,6.62,0,0,1,1.24,7.43,9,9,0,0,1-3.86,4.08l-16.48,9.78-1.67-1.77a3.7,3.7,0,0,1-.9-3.68A3.56,3.56,0,0,1,306.45,275.06Z"/><path fill="#F9D067" d="M60.43,360.36H73.74l88.62-57.31,30.82-9.15-14.45-.48-30.82,8.18L60.32,360A.19.19,0,0,0,60.43,360.36Z" data-secondary="true"/><path d="M60.43,360.36H73.74l88.62-57.31,30.82-9.15-14.45-.48-30.82,8.18L60.32,360A.19.19,0,0,0,60.43,360.36Z" opacity=".2"/><path fill="#F9D067" d="M246,412.8l47.41-32.69L291,370l-90.54-5.3-31.31,8.19L81.44,431.16l121,7.85S218.25,417.18,246,412.8Z" data-secondary="true"/><path d="M246,412.8l47.41-32.69L291,370l-90.54-5.3-31.31,8.19L81.44,431.16l121,7.85S218.25,417.18,246,412.8Z" opacity=".2"/><path fill="#F9D067" stroke="#351D66" stroke-miterlimit="10" d="M58.33,347.36,59.74,360a.19.19,0,0,0,.3.14l87.87-58.58,30.82-8.18,89.1,3.37-1.44-11.08-88.62-4.33L147,289.08Z" data-secondary="true"/><polygon fill="#F9D067" points="73.74 360.36 77.59 395.52 69.4 400.82 70.37 413.82 86.26 402.75 88.19 412.86 80.96 419.12 81.44 431.16 169.1 372.88 200.41 364.7 290.95 370 288.54 358.44 297.69 358.92 295.29 339.65 286.62 340.13 285.17 334.36 287.1 332.91 284.21 322.31 287.1 321.35 283.25 298.23 267.83 296.79 193.18 293.9 162.36 303.05 73.74 360.36" data-secondary="true"/><g clip-path="url(#b3477d55-8bc8-4785-a425-c13b0a19c789)"><polygon points="284.69 309.79 262.17 309.03 239.64 308.2 217.12 307.33 194.61 306.4 194.74 306.39 162.95 314.11 163.11 314.04 122.58 341.39 102.28 355 81.93 368.55 102.03 354.64 122.18 340.81 162.57 313.25 162.64 313.2 162.73 313.18 194.52 305.49 194.58 305.47 194.65 305.47 217.16 306.47 239.67 307.53 262.18 308.63 284.69 309.79" opacity=".2"/><polygon points="80.48 379.63 101.07 365.96 121.71 352.36 163.06 325.28 163.12 325.24 163.2 325.22 194.02 317.05 194.1 317.03 194.17 317.03 216.68 318.27 239.19 319.57 261.7 320.91 284.21 322.31 261.68 321.31 239.16 320.24 216.64 319.13 194.12 317.96 194.26 317.95 163.44 326.15 163.58 326.09 122.09 352.95 101.31 366.32 80.48 379.63" opacity=".2"/><polygon points="93.48 384.93 160.91 340.62 195.59 329.54 285.17 334.36 286.62 340.13 187.88 334.84 163.32 341.58 93.48 384.93" opacity=".2"/><polygon points="95.89 395.04 173.92 343.02 198.48 335.8 204.26 335.8 176.81 343.99 95.89 395.04" opacity=".2"/><polygon points="99.75 405.15 175.36 356.51 206.67 347.36 296.73 353.14 297.69 358.92 199.44 353.14 173.43 360.36 99.75 405.15" opacity=".2"/></g><polygon fill="none" stroke="#351D66" stroke-miterlimit="10" points="73.74 360.36 77.59 395.52 69.4 400.82 70.37 413.82 86.26 402.75 88.19 412.86 80.96 419.12 81.44 431.16 169.1 372.88 200.41 364.7 290.95 370 288.54 358.44 297.69 358.92 295.29 339.65 286.62 340.13 285.17 334.36 287.1 332.91 284.21 322.31 287.1 321.35 283.25 298.23 267.83 296.79 193.18 293.9 162.36 303.05 73.74 360.36"/><line x1="109.83" x2="225.34" y1="412.29" y2="418.47" fill="none" stroke="#6259B0" stroke-miterlimit="10"/><line x1="154.65" x2="268.4" y1="389.74" y2="397.36" fill="none" stroke="#6259B0" stroke-miterlimit="10"/><path fill="none" stroke="#6259B0" stroke-miterlimit="10" d="M151.76,435l90.55-61.16s5.78-1,5.29-11.56l-14.93-78.51"/><path fill="none" stroke="#6259B0" stroke-miterlimit="10" d="M283.24,298.23s-38.39,22.14-10.91,40.27c0,0,55,24.56,45.62,93,0,0-16.38,88.89-32.17,103.51"/><line x1="289.02" x2="211.96" y1="532.3" y2="394.56" fill="none" stroke="#6259B0" stroke-miterlimit="10"/><path fill="none" stroke="#6259B0" stroke-miterlimit="10" d="M113.23,311.24l14.45,83.32s-1.44,6.26,9.63,6.26L251.69,409"/><path fill="none" stroke="#351D66" stroke-miterlimit="10" d="M246,412.8,288.06,384s3.85-9.15-7.71-9.15L194.14,370s-9.15-1.93-13.48,2.89L105,423s-9.15,8.19,4.34,10.6L202.46,439S221.22,415.93,246,412.8Z"/><ellipse cx="152.19" cy="158.73" fill="#351D66" rx="2.1" ry="3.51" transform="translate(-55.7 87.04) rotate(-27.18)"/><ellipse cx="168.99" cy="151.25" fill="#351D66" rx="2.1" ry="3.51" transform="translate(-50.43 93.89) rotate(-27.18)"/><path fill="none" stroke="#351D66" stroke-miterlimit="10" d="M161.14,159.43s-1.43,15.71,4.57,13.71"/><path fill="none" stroke="#351D66" stroke-miterlimit="10" d="M160.86,180.29s8.57,8,15.43-2.86"/></g></g></svg>