<svg xmlns:xlink="http://www.w3.org/1999/xlink" xmlns="http://www.w3.org/2000/svg" width="865.76" height="682.89" viewBox="0 0 865.76 682.89"><path d="M362.61,113.2S312,163.8,223,186.29c0,0-158.36,42.72-180.85,118.64,0,0-60.91,120.28,39.36,240.23,0,0,140.84,142.54,417.51,119.47q4.56-.37,9.15-.44c23.91-.26,151.19-6.24,253.44-101.12,49.07-45.53,77.57-109.1,79.93-176,3.4-96.35-11.84-250.44-130.34-326.35C711.19,60.73,536.9-69.52,362.61,113.2Z" fill="#2ec4b6" data-secondary="true"></path><path d="M362.61,113.2S312,163.8,223,186.29c0,0-158.36,42.72-180.85,118.64,0,0-60.91,120.28,39.36,240.23,0,0,140.84,142.54,417.51,119.47q4.56-.37,9.15-.44c23.91-.26,151.19-6.24,253.44-101.12,49.07-45.53,77.57-109.1,79.93-176,3.4-96.35-11.84-250.44-130.34-326.35C711.19,60.73,536.9-69.52,362.61,113.2Z" fill="#FFFFFF" opacity="0.3"></path><path d="M652.12,611.39H426.75a2,2,0,0,1-2-2V590.45h229l.32,18.94A2,2,0,0,1,652.12,611.39Z" fill="#F6C778"></path><path d="M443.89,553.73l-19.22,36.69a2,2,0,0,0,1.77,2.93H652.08a2,2,0,0,0,1.77-2.94l-19.52-36.68Z" fill="#F6C778"></path><path d="M443.89,553.73l-19.22,36.69a2,2,0,0,0,1.77,2.93H652.08a2,2,0,0,0,1.77-2.94l-19.52-36.68Z" opacity="0.2"></path><rect x="448.59" y="179.39" width="188.46" height="374.34" rx="8.43" fill="#F6C778"></rect><rect x="448.59" y="179.39" width="188.46" height="374.34" rx="8.43" opacity="0.2"></rect><rect x="441.18" y="179.39" width="188.46" height="374.34" rx="8.43" fill="#F6C778"></rect><rect x="446.49" y="189.21" width="172.99" height="353.4" rx="8.4" fill="#FFFFFF" opacity="0.3"></rect><path d="M621.9,197.45v83.71c-42.53,112.14-144.4,147.16-173,155V197.45a8.4,8.4,0,0,1,8.4-8.4h156.2A8.39,8.39,0,0,1,621.9,197.45Z" fill="#FFFFFF" opacity="0.3"></path><rect x="88.27" y="179.39" width="211.33" height="401.72" rx="13.75" fill="#F6C778"></rect><rect x="88.27" y="179.39" width="211.33" height="401.72" rx="13.53" opacity="0.2"></rect><polygon points="225.66 148.14 231.14 165.21 210.52 148.14 225.66 148.14" fill="#F19432"></polygon><polygon points="210.52 148.14 201.5 148.14 221.8 165.54 231.14 165.21 210.52 148.14" fill="#F19432"></polygon><polygon points="210.52 148.14 201.5 148.14 221.8 165.54 231.14 165.21 210.52 148.14" opacity="0.2"></polygon><rect x="109.69" y="109.48" width="140.78" height="41.56" rx="7.34" fill="#F19432"></rect><rect x="109.69" y="109.48" width="140.78" height="41.56" rx="7.34" opacity="0.2"></rect><rect x="95.51" y="179.39" width="211.33" height="401.72" rx="14.28" fill="#F6C778"></rect><rect x="104.21" y="199.68" width="194.26" height="345.34" rx="11.6" fill="#EBEBEB"></rect><path d="M149,223.36a14.36,14.36,0,0,0-14-.44c-5.06,2.66-6.67,7.36-7,11.56a21,21,0,0,0,2.86,12l11,19.27h5.8Z" fill="#E71D35" data-secondary="true"></path><path d="M149,223.36a14.36,14.36,0,0,0-14-.44c-5.06,2.66-6.67,7.36-7,11.56a21,21,0,0,0,2.86,12l11,19.27h5.8Z" opacity="0.2"></path><path d="M219.86,475.28a14.34,14.34,0,0,0-14-.44c-5.07,2.66-6.68,7.36-7,11.56a21,21,0,0,0,2.86,12l11,19.27h5.79Z" fill="#E71D35" data-secondary="true"></path><path d="M219.86,475.28a14.34,14.34,0,0,0-14-.44c-5.07,2.66-6.68,7.36-7,11.56a21,21,0,0,0,2.86,12l11,19.27h5.79Z" opacity="0.2"></path><path d="M218.57,517.64l-11-18.95a21,21,0,0,1-2.86-12c.3-4.2,1.91-8.9,7-11.55a14.32,14.32,0,0,1,13.95.43c4.1,2.45,8.11,7.27,5.72,16.63a20.56,20.56,0,0,1-1.77,4.54Z" fill="#E71D35" data-secondary="true"></path><path d="M228.24,488.65c0,5.52-4.18,10-9.34,10a8.73,8.73,0,0,1-2.52-.37,9.92,9.92,0,0,1-6.83-9.62c0-5.51,4.19-10,9.35-10,.3,0,.61,0,.91,0A9.76,9.76,0,0,1,228.24,488.65Z" opacity="0.2"></path><path d="M226.63,488.33c0,5.51-4.18,10-9.34,10a9.08,9.08,0,0,1-.91-.05,9.92,9.92,0,0,1-6.83-9.62c0-5.51,4.19-10,9.35-10,.3,0,.61,0,.91,0A9.92,9.92,0,0,1,226.63,488.33Z" opacity="0.2"></path><ellipse cx="215.51" cy="523.6" rx="13.37" ry="1.45" fill="#E71D35" data-secondary="true"></ellipse><ellipse cx="215.51" cy="523.6" rx="13.37" ry="1.45" opacity="0.2"></ellipse><path d="M147.7,265.72l-11-19a21,21,0,0,1-2.85-12c.29-4.2,1.91-8.9,7-11.55a14.32,14.32,0,0,1,13.95.43c4.1,2.45,8.12,7.27,5.73,16.63a20.59,20.59,0,0,1-1.78,4.54Z" fill="#E71D35" data-secondary="true"></path><path d="M157.37,236.73c0,5.52-4.18,10-9.35,10a8.83,8.83,0,0,1-2.52-.37,9.92,9.92,0,0,1-6.82-9.62c0-5.51,4.18-10,9.34-10a9.08,9.08,0,0,1,.91,0A9.76,9.76,0,0,1,157.37,236.73Z" opacity="0.2"></path><path d="M155.76,236.41c0,5.51-4.19,10-9.35,10-.3,0-.61,0-.91-.05a9.92,9.92,0,0,1-6.82-9.62c0-5.51,4.18-10,9.34-10a9.08,9.08,0,0,1,.91,0A9.92,9.92,0,0,1,155.76,236.41Z" opacity="0.2"></path><ellipse cx="144.64" cy="271.68" rx="13.37" ry="1.45" fill="#E71D35" data-secondary="true"></ellipse><ellipse cx="144.64" cy="271.68" rx="13.37" ry="1.45" opacity="0.2"></ellipse><path d="M298.79,583l.32,12.89s-7.09,11.27,2.58,14.82h29.55a5,5,0,0,0,4.64-3.06c1.24-2.92,1.88-7-3.59-7.58,0,0-9.2-1.35-13.22-5.54a3.57,3.57,0,0,1-.95-2.47l-.32-11Z" fill="#ff9f1c" data-primary="true"></path><path d="M298.79,583l.32,12.89s-7.09,11.27,2.58,14.82h29.55a5,5,0,0,0,4.64-3.06c1.24-2.92,1.88-7-3.59-7.58,0,0-9.2-1.35-13.22-5.54a3.57,3.57,0,0,1-.95-2.47l-.32-11Z" opacity="0.2"></path><path d="M281.39,588.2v10.3s-7.08,11.28,2.58,14.82h29.55a5,5,0,0,0,4.65-3.05c1.23-2.92,1.88-7-3.6-7.58,0,0-9.2-1.35-13.21-5.55a3.56,3.56,0,0,1-1-2.46v-7.45Z" fill="#ff9f1c" data-primary="true"></path><rect x="160.91" y="185.19" width="77.32" height="8.38" opacity="0.2"></rect><path d="M216.32,563.71a14.72,14.72,0,0,1-.08,1.49,13.55,13.55,0,1,1,.08-1.49Z" opacity="0.2"></path><path d="M216.32,563.71a14.72,14.72,0,0,1-.08,1.49,13.53,13.53,0,0,1-22.79-9.86,14.41,14.41,0,0,1,.08-1.49,13.53,13.53,0,0,1,22.79,9.86Z" opacity="0.2"></path><polygon points="298.47 451.75 298.47 506.23 104.21 458.83 104.21 398.92 298.47 451.75" fill="#FFFFFF" opacity="0.5"></polygon><polygon points="298.47 361.8 298.47 379.89 104.21 329.16 104.21 310.94 298.47 361.8" fill="#FFFFFF" opacity="0.5"></polygon><polygon points="298.47 320.67 298.47 352.56 104.21 300.9 104.21 269.15 298.47 320.67" fill="#FFFFFF" opacity="0.5"></polygon><polygon points="298.62 447.9 199.66 447.9 199.66 199.73 200.63 199.73 200.63 446.93 298.62 446.93 298.62 447.9" fill="#ADE0F2"></polygon><polygon points="150.44 403.44 104.06 403.44 104.06 402.48 149.47 402.48 149.47 316.46 200.21 316.46 200.21 317.43 150.44 317.43 150.44 403.44" fill="#ADE0F2"></polygon><rect x="134.87" y="403.14" width="0.97" height="141.86" fill="#ADE0F2"></rect><polygon points="177.5 454.44 104.64 454.44 104.64 453.48 176.53 453.48 176.53 424.38 200.07 424.38 200.07 425.35 177.5 425.35 177.5 454.44" fill="#ADE0F2"></polygon><polygon points="298.14 331.28 251.92 331.28 251.92 245.31 200.44 245.31 200.44 244.35 252.88 244.35 252.88 330.31 298.14 330.31 298.14 331.28" fill="#ADE0F2"></polygon><rect x="200.07" y="394.61" width="98.08" height="0.97" fill="#ADE0F2"></rect><path d="M290.22,329.2s-11.73-5.81-16.24,5.46c0,0-19.65,39.63-9.66,47.68,0,0,4.27,5.79,13.41,5l11.07-37.2Z" fill="#F19432"></path><path d="M290.22,329.2s-3-1-7.54,8.69c0,0-21.82,42.19-4.95,49.44l11.07-37.2Z" opacity="0.3"></path><path d="M323.27,404.89s9.67,40.92,7.41,74.74l-11.92,96s8.06,9.78-15.14,9.88l-4.51-8-2.58-22.22,8.13-148.62S311,409.08,323.27,404.89Z" fill="#E71D35" data-secondary="true"></path><path d="M323.27,404.89s9.67,40.92,7.41,74.74l-11.92,96s8.06,9.78-15.14,9.88l-4.51-8-2.58-22.22,8.13-148.62S311,409.08,323.27,404.89Z" opacity="0.2"></path><path d="M323.27,404.89c-27.7,9.34-45.74-11.92-45.74-11.92l.36-8.05c.2.29.31.77.66.84,8.16,1.58,19,15.2,43.27,12.21.21,0,.87,2.13,1.08,2.07l.06.1Z" fill="#ff9f1c" data-primary="true"></path><path d="M323.27,404.89c-27.7,9.34-45.74-11.92-45.74-11.92l.36-8.05c.2.29.31.77.66.84,8.16,1.58,19,15.2,43.27,12.21.21,0,.87,2.13,1.08,2.07l.06.1Z" opacity="0.3"></path><path d="M380.13,375.42,415,373.91a1.64,1.64,0,0,1,1,3,15.81,15.81,0,0,1-11.29,2.88,39.94,39.94,0,0,1-24.16,5.47Z" fill="#C47B4A"></path><path d="M404.78,379.77s1.29-4.52-18.37,1.28" fill="none" stroke="#BC6E39" stroke-miterlimit="10"></path><path d="M349.55,318.6s13.67,27.66,18.5,30.56l7.73,11.92-7.73,7.41-23.52,2.58-2.6-6.72,1.64-12.93Z" fill="#ff9f1c" data-primary="true"></path><path d="M349.55,318.6s13.67,27.66,18.5,30.56l7.73,11.92-7.73,7.41-23.52,2.58-2.6-6.72,1.64-12.93Z" opacity="0.3"></path><path d="M290.41,326.93s-20-4.51-21.9-22.87c0,0-2.26-17.4,10.95-22.55,0,0-4.83-32.22,28.35-32.54,0,0,13.53-12.24,28,0l2.57,35.76-19.65,37Z" fill="#080A09"></path><path d="M507.61,459l7.61,83.67s9.07,4.94,19.06,1.08c0,0,9.66-36.4,5.15-70.23l-1-16.75Z" fill="#BC6E39"></path><ellipse cx="560.37" cy="575.95" rx="68.94" ry="10.63" opacity="0.2"></ellipse><path d="M585.5,537.94l6.77,11.28s2.57,4.51-1,10c0,0-10,13.53-4.19,15.79,0,0,4.51,3.22,16.43-10,0,0,13.21-9.34,7.73-19.33L600,527S597.74,534.72,585.5,537.94Z" fill="#FFFFFF"></path><path d="M515.22,542.66l.7,21.37s-16.43,8.38-13.85,13.21c0,0-.33,3.55,15.46,2.58,0,0,17.39,1,16.11-8.05a9.28,9.28,0,0,0-1.29-4.19l1.93-23.84S527.41,547.7,515.22,542.66Z" fill="#FFFFFF"></path><path d="M480.48,279.25s-1.36,24.54-6.34,34a5.38,5.38,0,0,1-2.63,2.46c-1.26.53-3.24,1.85-4.7,5.14a5.56,5.56,0,0,1-1.75,2.21,176.8,176.8,0,0,1-16.3,10.83l-.17,2.11,42.84-.67a20.83,20.83,0,0,0,5.2-9.89s-9.76-15.26-10.7-29.1C485.93,296.32,486.12,286.18,480.48,279.25Z" fill="#ff9f1c" data-primary="true"></path><path d="M480.48,279.25s-1.36,24.54-6.34,34a5.38,5.38,0,0,1-2.63,2.46c-1.26.53-3.24,1.85-4.7,5.14a5.56,5.56,0,0,1-1.75,2.21,176.8,176.8,0,0,1-16.3,10.83l-.17,2.11,42.84-.67a20.83,20.83,0,0,0,5.2-9.89s-9.76-15.26-10.7-29.1C485.93,296.32,486.12,286.18,480.48,279.25Z" opacity="0.2"></path><polygon points="366.76 350.45 388.67 335.95 473.72 334.99 473.07 348.52 366.76 350.45" fill="#ADE0F2"></polygon><polygon points="473.07 358.82 366.76 358.82 366.76 350.45 473.07 348.52 473.07 358.82" fill="#ADE0F2"></polygon><polygon points="473.07 358.82 366.76 358.82 366.76 350.45 473.07 348.52 473.07 358.82" opacity="0.3"></polygon><polygon points="470.5 371.39 365.47 375.9 365.15 365.27 470.17 360.76 470.5 371.39" fill="#ADE0F2"></polygon><polygon points="470.5 371.39 365.47 375.9 365.15 365.27 470.17 360.76 470.5 371.39" opacity="0.3"></polygon><polygon points="365.15 365.27 372.72 358.66 473.07 358.82 470.33 360.92 365.15 365.27" fill="#ADE0F2"></polygon><path d="M532.51,464.33a33.65,33.65,0,0,0,10.31,19.33l42.68,54.28s11-2.26,14.5-11l-15.79-39s-11.31-24.18-20.31-29.33l-25.43-1.92Z" fill="#C47B4A"></path><path d="M465.5,229.8l.13,25a15.82,15.82,0,0,0,1.7,7.05c1.89,3.68,5.68,8.25,12.83,8.05a1.67,1.67,0,0,1-.65-2.25s5.21,4.09,11.12,1.12a10.07,10.07,0,0,1,3-2.31l-3.61-6L467.3,232.29l-1-.71Z" fill="#080A09"></path><path d="M638.46,546.62l148.71,18.7V173.59l-151,14a2.22,2.22,0,0,0-2,2.2L633.51,541A5.67,5.67,0,0,0,638.46,546.62Z" fill="#F6C778"></path><rect x="787.17" y="173.59" width="9.02" height="392.05" fill="#F6C778"></rect><rect x="787.17" y="173.59" width="9.02" height="392.05" opacity="0.2"></rect><rect x="753.66" y="361.72" width="24.81" height="62.5" rx="10.34" fill="#F6C778"></rect><rect x="753.66" y="361.72" width="24.81" height="62.5" rx="10.34" opacity="0.3"></rect><rect x="588.72" y="148.78" width="155.28" height="192.97" rx="11.77" fill="#ff9f1c"></rect><rect x="588.72" y="148.78" width="155.28" height="192.97" rx="11.77" opacity="0.2"></rect><path d="M489.18,259l5.8,10s6-1.13,10.63-9.35c0,0-4.51-3.22-6.44-13.53Z" fill="#C47B4A"></path><path d="M489.18,259l3.8,6.47s8.76-8.4,6.19-19.36Z" fill="#BC6E39"></path><path d="M538.79,332.3c-1.68,7.16-4.3,12.94-8.38,14.93,0,0-9.58,5.64-25.33,7.42-1.08.12-2.19.23-3.34.31,0,0-21.62,4-27.44-3.78a6.92,6.92,0,0,1-1.23-2.66,30.37,30.37,0,0,1,.23-8.4,7.47,7.47,0,0,1,1.37-3,7.39,7.39,0,0,1,5.4-2.92l20.71-1.44s-14-21.49-14.85-36.41a37.66,37.66,0,0,0-2.28-11.17,21,21,0,0,0-3.17-5.9s7.62-10.09,13.15-12.77L495,269s6.12-1.61,10.63-9.35c0,0,1.45,3.39,8.7,3.55,0,0,26.09.32,27.06,26.74C541.37,289.89,542.81,315.1,538.79,332.3Z" fill="#ff9f1c" data-primary="true"></path><path d="M485.54,293.22s20.71,2.14,31.34-3c0,0-3.75,18.14-2.63,31l.06.57c1.29,12.88-13.53,11-13.53,11s-14.34-21.1-14.85-36.41Z" fill="#000" data-secondary="true"></path><path d="M493.64,266.47a13,13,0,0,0-3,1.9s.9,9.37,8.45,10.48a7.27,7.27,0,0,0,4.35-.72c2.92-1.47,8-5.4,8.92-15.1,0,0-4.7,0-6.79-3.43A21.43,21.43,0,0,1,495,269Z" opacity="0.2"></path><path d="M575.47,453.94l-18,6.68c-36.54,10.52-52.06-1.71-56.53-6.56a3.92,3.92,0,0,1-.87-3.71,63.75,63.75,0,0,0,1.46-6.83c3.07-18.69,2.15-48,2.15-48-1.61-25.73.22-36.72,1.4-40.9,15.75-1.78,25.33-7.42,25.33-7.42,4.08-2,6.7-7.77,8.38-14.93l.11-.07a31.49,31.49,0,0,1,3.42,1.57,38.43,38.43,0,0,1,12.9,11.5c15.79,17.39,21.26,78.92,21.26,78.92.51,12.91,1.47,20,2.26,23.81A5.18,5.18,0,0,1,575.47,453.94Z" fill="#E71D35" data-secondary="true"></path><path d="M575.47,453.94l-18,6.68c-36.54,10.52-52.06-1.71-56.53-6.56a3.92,3.92,0,0,1-.87-3.71,63.75,63.75,0,0,0,1.46-6.83c14.29-3.32,24.7-17.69,24.7-17.69,20.81-33.36,17.75-77.77,16.09-92a38.43,38.43,0,0,1,12.9,11.5c15.79,17.39,21.26,78.92,21.26,78.92.51,12.91,1.47,20,2.26,23.81A5.18,5.18,0,0,1,575.47,453.94Z" opacity="0.2"></path><path d="M473.07,348.52a6.92,6.92,0,0,0,1.23,2.66c-1.83.07-18.93.52-18.62-5.88a6,6,0,0,1-1.94-4.84,8,8,0,0,1-2.25-2.78,2,2,0,0,1,1.9-2.69h8.08a2.23,2.23,0,0,1-.93-2.17.58.58,0,0,1,1-.35A10.16,10.16,0,0,0,467.6,335s4.81-.25,7.07,2.1a7.47,7.47,0,0,0-1.37,3A30.37,30.37,0,0,0,473.07,348.52Z" fill="#C47B4A"></path><path d="M342.6,363.34l-16.16,33.81A5.3,5.3,0,0,1,322.9,400a4.52,4.52,0,0,1-.62.12c-24.3,3-38.13-8.26-43.73-14.4a8.69,8.69,0,0,1-.66-.84A8.17,8.17,0,0,1,276.7,378l12.43-45c6.12-27.06,29.23-29.93,29.23-29.93l26.76,9.73C360.21,324.86,342.6,363.34,342.6,363.34Z" fill="#ff9f1c" data-primary="true"></path><path d="M299.76,317s-12.25,6.12-4.51,31.24c0,0,13.53,41.88,54.12,45.11,0,0,28.35,4.18,31.25-8.06L380,372s-1.93-6.44-21.58-5.8l-16.46-1.88a5,5,0,0,1-4.15-3.38C333.94,349.33,318.87,308.36,299.76,317Z" fill="#ff9f1c" data-primary="true"></path><path d="M299.76,317s-12.25,6.12-4.51,31.24c0,0,13.53,41.88,54.12,45.11,0,0,28.35,4.18,31.25-8.06L380,372s-1.93-6.44-21.58-5.8l-16.46-1.88a5,5,0,0,1-4.15-3.38C333.94,349.33,318.87,308.36,299.76,317Z" opacity="0.2"></path><path d="M277.53,393s-18,16.11-16.43,53.48L269.8,565l.4,9.24a10.76,10.76,0,0,0,4.94,8.6l3.64,2.34a1.49,1.49,0,0,1,.68,1.25h0a3.51,3.51,0,0,0,3.7,3.5L300.3,589a3.51,3.51,0,0,0,3.32-3.51v-4.72s6.12-3.55,5.8-15.79l2.06-157.94S293.31,409.4,277.53,393Z" fill="#E71D35" data-secondary="true"></path><path d="M270.2,402.62A71.7,71.7,0,0,0,261.33,434" fill="#E71D35" data-secondary="true"></path><path d="M279.46,586.43s12.24-1.46,20.3-5.64" fill="none" stroke="#000000" stroke-miterlimit="10" opacity="0.2"></path><path d="M283.51,398.87s-6.63,9.57-6.95,36.63l3.87,131.43s-1.29,14.5,4.83,18" fill="none" stroke="#000000" stroke-miterlimit="10" opacity="0.2"></path><rect x="126.44" y="109.48" width="140.78" height="41.56" rx="9.65" fill="#F19432"></rect><path d="M142.56,126.75a8,8,0,0,1,3.09-3,8.62,8.62,0,0,1,4.28-1.09,8.72,8.72,0,0,1,4.74,1.3,7.49,7.49,0,0,1,3,3.71h-3.29a4.38,4.38,0,0,0-1.8-2,5.32,5.32,0,0,0-2.66-.65,5.8,5.8,0,0,0-3,.75,5.13,5.13,0,0,0-2,2.13,6.85,6.85,0,0,0-.73,3.24,6.78,6.78,0,0,0,.73,3.23,5.25,5.25,0,0,0,2,2.15,5.8,5.8,0,0,0,3,.75,5.32,5.32,0,0,0,2.66-.64,4.38,4.38,0,0,0,1.8-2h3.29a7.4,7.4,0,0,1-3,3.69,9.15,9.15,0,0,1-9,.21,8.17,8.17,0,0,1-3.08-3,9,9,0,0,1,0-8.77Z" fill="#FFFFFF"></path><path d="M174.17,122.84V139.5h-2.73v-7.28H163.6v7.28h-2.74V122.84h2.74V130h7.84v-7.15Z" fill="#FFFFFF"></path><path d="M180.5,125.05v4.89h5.75v2.23H180.5v5.1H187v2.23h-9.2V122.82H187v2.23Z" fill="#FFFFFF"></path><path d="M190.55,126.75a8,8,0,0,1,3.1-3,8.6,8.6,0,0,1,4.28-1.09,8.69,8.69,0,0,1,4.73,1.3,7.44,7.44,0,0,1,3,3.71h-3.28a4.49,4.49,0,0,0-1.8-2,5.37,5.37,0,0,0-2.66-.65,5.75,5.75,0,0,0-3,.75,5.09,5.09,0,0,0-2,2.13,6.85,6.85,0,0,0-.73,3.24,6.78,6.78,0,0,0,.73,3.23,5.21,5.21,0,0,0,2,2.15,5.75,5.75,0,0,0,3,.75,5.37,5.37,0,0,0,2.66-.64,4.49,4.49,0,0,0,1.8-2h3.28a7.35,7.35,0,0,1-3,3.69,9.13,9.13,0,0,1-9,.21,8.13,8.13,0,0,1-3.09-3,9.07,9.07,0,0,1,0-8.77Z" fill="#FFFFFF"></path><path d="M218,139.5l-6.45-7.45v7.45h-2.73V122.84h2.73v7.6l6.47-7.6h3.43l-7.24,8.34,7.36,8.32Z" fill="#FFFFFF"></path><path d="M226.77,125.05v4.89h5.75v2.23h-5.75v5.1h6.47v2.23H224V122.82h9.21v2.23Z" fill="#FFFFFF"></path><path d="M246.7,123.86a7.34,7.34,0,0,1,3.09,2.93,8.75,8.75,0,0,1,1.09,4.44,8.54,8.54,0,0,1-1.09,4.41,7.21,7.21,0,0,1-3.09,2.87,10.38,10.38,0,0,1-4.66,1h-5.45V122.84H242A10.13,10.13,0,0,1,246.7,123.86Zm-.18,11.83a6.07,6.07,0,0,0,1.56-4.46,6.29,6.29,0,0,0-1.56-4.53,5.89,5.89,0,0,0-4.48-1.63h-2.71v12.2H242A6,6,0,0,0,246.52,135.69Z" fill="#FFFFFF"></path><rect x="466.95" y="217.72" width="32.21" height="44.46" rx="13.43" fill="#C47B4A"></rect><path d="M485,232.22s-7.73,8.38-18.68-.64c0,0-8.06-4.19-5.8-10.63,0,0,1.29-2.9,6.44-1.29,0,0,16.75-15.79,37.37-7.09,0,0,5.8,1,12.56,18,0,0,6.12,20.94,19.66,21.91a11.14,11.14,0,0,1-10.64,3.86s0,1.94,3.23,1.61c0,0-7,6.22-16.73,5,0,0-4.86-.2-6.79-3.43,0,0-4.48-2.83-5.62-10.11l-.82-6.36s-1.94-1.24-2.58-6.4C496.59,236.73,488.54,238,485,232.22Z" fill="#080A09"></path><path d="M500.13,220.3c5.27,6,7.77,15.07,4.57,22.63a25,25,0,0,0,.62-2.93c1.09-6.94-1.31-14-5.19-19.7Z" opacity="0.2"></path><ellipse cx="501.74" cy="245.75" rx="3.54" ry="4.83" fill="#C47B4A"></ellipse><path d="M526.87,276c-4.44,2.69-7.13,7.48-8.93,12.21l-.7,2.08v0c-1,5.17-1.75,10.42-2.25,15.67a95.87,95.87,0,0,0-.18,17.1c0,8.38-6.78,10.75-14,9.67,3.36.21,7,0,9.86-2s3.76-5.69,3.25-8.94A99.32,99.32,0,0,1,515,298c.42-2.62.88-5.23,1.48-7.83.25-.72.5-1.43.77-2.14a26.61,26.61,0,0,1,6-9.35,13.94,13.94,0,0,1,3.59-2.61Z" fill="#ff9f1c" data-primary="true"></path><g opacity="0.2"><path d="M526.87,276c-4.44,2.69-7.13,7.48-8.93,12.21l-.7,2.08v0c-1,5.17-1.75,10.42-2.25,15.67a95.87,95.87,0,0,0-.18,17.1c0,8.38-6.78,10.75-14,9.67,3.36.21,7,0,9.86-2s3.76-5.69,3.25-8.94A99.32,99.32,0,0,1,515,298c.42-2.62.88-5.23,1.48-7.83.25-.72.5-1.43.77-2.14a26.61,26.61,0,0,1,6-9.35,13.94,13.94,0,0,1,3.59-2.61Z"></path></g><line x1="453.74" y1="340.46" x2="460.99" y2="340.46" fill="none" stroke="#BC6E39" stroke-miterlimit="10"></line><line x1="455.68" y1="345.3" x2="462.28" y2="345.3" fill="none" stroke="#BC6E39" stroke-miterlimit="10"></line><rect x="751.41" y="361.72" width="24.81" height="62.5" rx="10.34" fill="#F6C778"></rect><rect x="751.41" y="361.72" width="24.81" height="62.5" rx="10.34" opacity="0.2"></rect><circle cx="763.49" cy="376.06" r="8.21" fill="#FFFFFF"></circle><rect x="585.5" y="152.97" width="151.41" height="189.1" rx="13.39" fill="#F19432"></rect><rect x="594.84" y="191.31" width="134.66" height="5.15" rx="2.15" fill="#F6C778"></rect><rect x="627.7" y="206.77" width="97.29" height="34.79" rx="3.37" fill="#FFFFFF"></rect><rect x="628.03" y="248.97" width="97.29" height="34.79" rx="2.63" fill="#FFFFFF"></rect><rect x="628.35" y="291.82" width="97.29" height="34.79" rx="2.89" fill="#FFFFFF"></rect><rect x="599.03" y="206.77" width="21.91" height="20.94" rx="1.93" fill="#FFFFFF"></rect><rect x="599.03" y="249.29" width="21.91" height="20.94" rx="1.38" fill="#FFFFFF"></rect><rect x="599.03" y="292.14" width="21.91" height="20.94" rx="1.84" fill="#FFFFFF"></rect><path d="M609.66,223.85a1,1,0,0,1-.73-.35l-5.48-6.44a1,1,0,1,1,1.47-1.25l4.49,5.28,8.71-19.23a1,1,0,0,1,1.77.8l-9.35,20.62a1,1,0,0,1-.74.56Z" fill="#E71D35" data-secondary="true"></path><path d="M609.66,266.37a.94.94,0,0,1-.73-.34l-5.48-6.44a1,1,0,1,1,1.47-1.26l4.49,5.28,8.71-19.22a1,1,0,0,1,1.77.79l-9.35,20.62a1,1,0,0,1-.74.56Z" fill="#E71D35" data-secondary="true"></path><path d="M620.82,176a4.48,4.48,0,0,1-1.92,1.83,7.09,7.09,0,0,1-3.38.71h-3v6.76h-2.73V168.59h5.75a7.24,7.24,0,0,1,3.25.66,4.57,4.57,0,0,1,2,1.78,4.89,4.89,0,0,1,.66,2.52A5,5,0,0,1,620.82,176Zm-3-.4a2.59,2.59,0,0,0,.77-2c0-1.82-1-2.73-3.1-2.73h-3v5.44h3A3.35,3.35,0,0,0,617.85,175.55Z" fill="#FFFFFF"></path><path d="M634.08,181.84h-7l-1.2,3.41h-2.85l6-16.69h3.17l6,16.69h-2.87Zm-.77-2.23-2.71-7.74-2.73,7.74Z" fill="#FFFFFF"></path><path d="M653.09,168.59l-5.51,10.62v6h-2.74v-6l-5.53-10.62h3l3.86,8.17,3.86-8.17Z" fill="#FFFFFF"></path><path d="M672.8,168.59v16.66h-2.74V173.84L665,185.25h-1.89L658,173.84v11.41h-2.73V168.59h3l5.85,13.06,5.82-13.06Z" fill="#FFFFFF"></path><path d="M679.12,170.79v4.89h5.76v2.23h-5.76V183h6.48v2.23h-9.21V168.56h9.21v2.23Z" fill="#FFFFFF"></path><path d="M702.64,185.25h-2.73l-8.22-12.44v12.44H689V168.56h2.74L699.91,181V168.56h2.73Z" fill="#FFFFFF"></path><path d="M717,168.59v2.23h-4.43v14.43h-2.74V170.82h-4.46v-2.23Z" fill="#FFFFFF"></path><polygon points="339.38 320.17 326.49 319.2 326.17 287.31 339.38 287.31 339.38 320.17" fill="#C47B4A"></polygon><path d="M339.37,300.9s7.78,6.77,6.84,24.1a.48.48,0,0,1-.79.34l-6-5.17Z" fill="#E71D35" data-secondary="true"></path><path d="M339.31,307.72V295.94l-9.11-6.54S328.77,299.62,339.31,307.72Z" fill="#BC6E39"></path><rect x="324.2" y="250.73" width="36.93" height="51.15" rx="15.39" transform="translate(-52.14 81.63) rotate(-12.63)" fill="#C47B4A"></rect><ellipse cx="322.95" cy="286.18" rx="5.15" ry="5.96" transform="translate(-108.27 270.48) rotate(-39.46)" fill="#C47B4A"></ellipse><path d="M318.44,277.64a9,9,0,0,0,4.63,6.68,2,2,0,0,0,2.87-1.52,16,16,0,0,0-.41-5.48s9.34.32,12.56-6.76c0,0,14.18,1.93,20.62-5.8l1.45,5.36s.8-.53,1.13-4.72c0,0,1.61-5.15-6.45-2.25Z" fill="#080A09"></path><path d="M361.29,265.4s1.24-3.4-2.93-3.15a28.85,28.85,0,0,0-8.14,2.76l-31.77,12.63h0s-8.05-24.48,16.43-30.28c0,0,16.43-4.51,23.19,9.34h0c.24-.08,11.29-3.83,12.88-.64C371,256.06,372.88,261.21,361.29,265.4Z" fill="#ff9f1c" data-primary="true"></path><path d="M361.29,265.4s1.24-3.4-2.93-3.15a28.85,28.85,0,0,0-8.14,2.76l-31.77,12.63c.52-.31,34.18-20.3,39.61-20.94h0c.24-.08,11.29-3.83,12.88-.64C371,256.06,372.88,261.21,361.29,265.4Z" opacity="0.2"></path><polygon points="322.95 296.65 326.29 296.65 326.33 302.29 322.95 296.65" fill="#E71D35" data-secondary="true"></polygon><polygon points="322.95 296.65 326.29 296.65 326.33 302.29 322.95 296.65" opacity="0.2"></polygon><polygon points="322.95 296.65 337.77 321.13 333.26 330.48 316.19 305.99 322.95 296.65" fill="#E71D35" data-secondary="true"></polygon><path d="M298.47,211.28V240L160.76,199.68H286.87A11.61,11.61,0,0,1,298.47,211.28Z" fill="#FFFFFF" opacity="0.5"></path><rect x="405.58" y="291.66" width="32.54" height="4.19" fill="#E71D35" data-secondary="true"></rect><rect x="405.58" y="291.66" width="32.54" height="4.19" opacity="0.2"></rect><rect x="400.59" y="295.68" width="42.85" height="48.32" rx="10.78" fill="#E71D35" data-secondary="true"></rect></svg>