<svg xmlns:xlink="http://www.w3.org/1999/xlink" xmlns="http://www.w3.org/2000/svg" viewBox="0 0 296.875 296.875" preserveAspectRatio="xMidYMid meet" class="css-116ckqy" id="dgcbfgab" width="296.875"  height="296.875" ><defs id="SvgjsDefs1827"></defs><g id="SvgjsG1828" featurekey="rootContainer" transform="matrix(5.9375,0,0,5.9375,0.29687047004699707,0)" fill="#e71d36"><path xmlns="http://www.w3.org/2000/svg" d="M24.95 0a25 25 0 1 0 25 25 25 25 0 0 0-25-25zm0 46.91a22 22 0 1 1 22-22 22 22 0 0 1-22 21.99z" fill="#e71d36"></path><path xmlns="http://www.w3.org/2000/svg" d="M24.95 3.65a21.3 21.3 0 1 0 21.3 21.3 21.33 21.33 0 0 0-21.3-21.3z" fill="#e71d36"></path></g><g id="SvgjsG1829" featurekey="symbolFeature-0" transform="matrix(0.2918919026851654,0,0,0.2918919026851654,104,75)" fill="#FFFFFF"><defs xmlns="http://www.w3.org/2000/svg"></defs><g xmlns="http://www.w3.org/2000/svg" fill="#FFFFFF"><path class="fil0" d="M151 0c84,0 151,68 151,151 0,63 -39,119 -97,141l0 41 -13 0 0 -36c-27,7 -55,7 -82,0l0 36 -12 0 0 -41c-59,-22 -98,-78 -98,-141 0,-83 68,-151 151,-151zm47 127c17,0 30,18 30,40 0,19 -10,35 -23,39l0 80c55,-22 91,-75 91,-135 0,-80 -65,-145 -145,-145 -80,0 -145,65 -145,145 0,60 37,113 92,135l0 -80c-14,-5 -24,-26 -24,-52 0,-10 2,-19 4,-27l10 0 2 22 3 27 3 -27 2 -22 12 0 3 22 3 27 2 -27 3 -22 8 0c3,8 5,17 5,27 0,26 -11,47 -24,52l0 84c27,8 56,8 82,0l0 -84c-13,-4 -23,-20 -23,-39 0,-22 13,-40 29,-40z" style="fill-rule: nonzero;" fill="#FFFFFF"></path></g></g><g id="SvgjsG1830" featurekey="nameFeature-0" transform="matrix(0.9786499738693237,0,0,0.9786499738693237,52.21707973141522,178.37719066321992)" fill="#FFFFFF"><path d="M6.28 43.44 l-4.6 -0.12 l-0.88 -27.16 l12.8 -1 l-0.2 5.4 l-8.4 -0.44 l0.44 8.6 l5.12 -0.68 l0.28 4.64 l-4.68 0.08 z M22.675 41.52 c-10.68 0.44 -9.16 -26.16 1.16 -26.16 c10.4 0 9.8 25.72 -1.16 26.16 z M23.715000000000003 35.92 c2.56 0.08 3.4 -6.28 3.52 -9.2 s-0.8 -7 -3.24 -6.92 s-3.76 6.32 -3.68 8.72 c0.12 3.08 0.8 7.32 3.4 7.4 z M39.95 41.52 c-10.68 0.44 -9.16 -26.16 1.16 -26.16 c10.4 0 9.8 25.72 -1.16 26.16 z M40.99000000000001 35.92 c2.56 0.08 3.4 -6.28 3.52 -9.2 s-0.8 -7 -3.24 -6.92 s-3.76 6.32 -3.68 8.72 c0.12 3.08 0.8 7.32 3.4 7.4 z M54.065000000000005 42.6 c-2.12 0.04 -3.64 -0.28 -3.64 -0.28 l-0.16 -26.56 s0.68 -0.2 3.92 0 c3.24 0.24 9.56 2.52 10.04 12.68 c0.44 10.16 -5.64 14.08 -10.16 14.16 z M54.865 37.56 c0 0 5.44 -2.2 5.28 -8.28 c-0.16 -6.12 -3.68 -8.08 -5.8 -8.36 z M84.17500000000001 43.44 l-4.6 -0.12 l-0.88 -27.16 l12.8 -1 l-0.2 5.4 l-8.4 -0.44 l0.44 8.6 l5.12 -0.68 l0.28 4.64 l-4.68 0.08 z M103.81000000000002 41.48 l-1.24 -6 l-4.96 0.48 l-1 5.72 l-4.2 -1.12 l4.92 -26.24 l4.8 -0.4 l6.76 26.96 z M98.37000000000002 31.8 l3.32 -0.64 l-1.72 -8.36 z M127.24500000000002 40 c-6.8 7.56 -15.76 5.16 -15.84 -8.96 c-0.08 -12.12 9.32 -16.92 14.92 -11.44 l-1.68 3.64 c-2.2 -2.24 -8.28 -0.24 -8.76 7.68 c-0.44 7 4.68 11.28 8.44 5.32 z M142.04000000000002 15.280000000000001 l-0.36 4.72 l-4.12 0.16 l0.28 19.92 l-6.04 1 l1.12 -20.76 l-4.36 0.16 l0.12 -4.4 z M150.71500000000003 41.52 c-10.68 0.44 -9.16 -26.16 1.16 -26.16 c10.4 0 9.8 25.72 -1.16 26.16 z M151.75500000000005 35.92 c2.56 0.08 3.4 -6.28 3.52 -9.2 s-0.8 -7 -3.24 -6.92 s-3.76 6.32 -3.68 8.72 c0.12 3.08 0.8 7.32 3.4 7.4 z M171.59000000000003 40.04 l-4.6 -10.32 c-0.44 0.08 -0.84 0.16 -1.2 0.2 l0.2 10.52 l-4.96 -0.36 l0.44 -25.36 l4.32 -0.56 c4.28 -0.56 8.04 2.28 8.28 6.72 c0.16 2.96 -0.88 5.4 -3.04 7.04 l4.64 9.44 z M165.63000000000005 22.4 l0.04 1.12 c0.68 0.12 4.04 0.48 4.2 -2.04 c0.2 -3.68 -2.56 -2.76 -3.92 -2.56 z M190.94500000000005 15.16 l4 1.84 l-13.08 24.28 l-3.8 -2.24 l5.64 -10.44 l-6.12 -11.72 l3.48 -2.04 l5.12 9.12 z" fill="#FFFFFF"></path></g></svg>