<svg xmlns="http://www.w3.org/2000/svg" xmlns:xlink="http://www.w3.org/1999/xlink" width="865.76" height="682.89" viewBox="0 0 865.76 682.89"><defs><clipPath id="a"><path fill="none" d="M530.53,229.85s-32.35,98.31-5.65,117.47c0,0,61.87,0,64.38,14.44,0,0,22.62-7.85,13.82-34.86,0,0,.95-68.47,7.54-80.72,0,0,2.2-25.75-24.18-28.89l-21.25-2.9Z"/></clipPath><clipPath id="b"><path fill="none" d="M539.32,291.72s1.26-3.14,8.17-3.45l31.41,1.57-12.56-38.77a23.09,23.09,0,0,1,2.37-19.65c3.4-5.24,9.53-9.82,20.55-9.11,0,0,17.59-3.14,23.25,29.52l17.27,71s2.51,6.91-20.42,5.65l-64-2.1a9.9,9.9,0,0,1-8.53-5.31.17.17,0,0,0-.07-.13l-8.48-.63s7.54-2.88,9.13-15.45c0,0,1.2-9.17-3.79-13.36Z"/></clipPath><clipPath id="c"><ellipse cx="733.85" cy="573.71" fill="none" rx="69.39" ry="62.36" transform="translate(-62.48 1056.97) rotate(-69.27)"/></clipPath><clipPath id="d"><path fill="none" d="M796.77,500.33l-16.36,2.79-88.56,1.6s-12.62-1.4-19.13,16.5c-1.19,3.28-2.45,6.55-3.9,9.73l-7.69,16.85s-6.38,19.2-35.5,19.2l-47.87,6.38-69.12,1.3-1.5-20,4.59-6.78-1.19-8.18s-5.39,3.2-11.17,3c0,0-3.79,1.59-15.36-1.6L372.7,510.7s-13.56-2.39-14-21.54l8.78-34.71s4.39-6.78,10.77-8.38L456,412.17l122.07,33.11L563,476.79s-5.36,12.74-1.34,23.77a68.81,68.81,0,0,1,2.57,8.31L576.16,561l16.75.2s11.77-6.19,20-25.54L650,452.46l-11.78-.59a6.15,6.15,0,0,1-5.51-4.17L608.1,375.05a9.37,9.37,0,0,1,4.08-11l9.22-5.49a4.24,4.24,0,0,0,1.81-5.12L611.66,322s5.06-1.07,6.26-7.32a11.93,11.93,0,0,0-1.59-8.45,7.42,7.42,0,0,0-7.35-3.77l12.42-.73a3.8,3.8,0,0,0,2.46-1.08l14.49-14.15a4.3,4.3,0,0,1,3-1.21h22.56a3.61,3.61,0,0,1,2.71,1.24l4.12,4.75,1.59,20-8,10.77,7.28,19.05a4.5,4.5,0,0,0,4.2,2.89h4.48s3.59.8,6.38,6l33.12,84.18-8,28.72L784.4,486a12.51,12.51,0,0,1,1.62.66,16.9,16.9,0,0,1,7.76,7.73Z"/></clipPath><clipPath id="e"><path fill="none" d="M475.55,439s.47,6.51,23.7,6.51c2.32,0,86.88-.47,86.88-.47a13.08,13.08,0,0,0,11.08-11,16.83,16.83,0,0,0-1.13-9.14l-5.77-14.23s-2.78-8.83-16.26-10.22l-21.37-4.18-91.53,20.91Z"/></clipPath><clipPath id="f"><path fill="none" d="M346.07,555.85a5,5,0,0,0,1.28-3.58c-.21-4.45.63-16,12.26-29.89l28.48-33.79s22.69-23.65,35.24-56.47l37.35-59,23.95-55.42s22.2-8.2,35.23-2.41c0,0-3.49,26.36,5,32l-.85,13.4-27.33,57.4-55.51,69L421.4,526.72s-26.13,51.79-44.4,54.44a4.06,4.06,0,0,0-2.48,1.29l-10,11.37s-4.5-21.26-28.7-26.66h0Z"/></clipPath><clipPath id="g"><path fill="none" d="M555.91,208.11c-11.37,12-37.1,9-37.1,9l-1-21.12a16.67,16.67,0,0,0,4.76.7c10.5,0,19.37-10,22.3-23.65l.29-.22Z"/></clipPath><clipPath id="h"><path fill="none" d="M510.44,134.51s5.68,15,34.7,23.93a24.28,24.28,0,0,1,0,14.37l9.58,32s8.08,3.59,10.47,9.57c0,0,34.41,1.2,30.82-14.36,0,0-5.69-20.64-34.71-37.1a50.85,50.85,0,0,0,1.45-17.46,21.32,21.32,0,0,0-17.3-18.3c-7.49-1.43-19.75-2.69-29.74,1.44a24.4,24.4,0,0,0-12.49,12.1c-3.08,6.41-10.88,19.6-23.9,22.52,0,0-15.26,3.89-34.71-8.68,0,0-60.34-46.77-71.91,11.87,0,0,2-22.34,58.65-8.38,0,0,29.12,10,41.49,7.58,0,0-10.78,9.58-69,5.59,0,0-97.74-10-69.81,41.09,0,0,33.11-56.25,58.24-34.11,0,0,70,61,85,58.64l3.19-1.59s5.7-12.54,19.1-13.39c0,0,8.55-4.56,13.39-4.85l5.71-6-.87-15s-14.72-1.88-18.57-28.85C499.22,167.12,496.57,147.22,510.44,134.51Z"/></clipPath><clipPath id="i"><path fill="none" d="M486.42,364.13l1.52-13.63s-23.64,1.69-26,9.91l-1.24,12.73S461.64,368,486.42,364.13Z"/></clipPath><clipPath id="j"><path fill="none" d="M459.24,559.85l3.35,8.19a7.58,7.58,0,0,1,.33,4.68l-2.6,10.44,10.26.56s3.07-.59,5.69,3.45c0,0,3.56,1.75,5.47.56l12.15-18.4L488,549.62S478,559.61,459.24,559.85Z"/></clipPath><clipPath id="k"><polygon fill="none" points="706 428.14 706.24 462.06 803.65 462.06 823.61 455.08 823.13 420.93 808.94 425.5 711.29 425.5 706 428.14"/></clipPath><clipPath id="l"><polygon fill="none" points="711.29 425.5 711.1 404.81 776.31 405.28 793.75 398.12 828.38 397.88 828.62 418.42 808.94 425.5 711.29 425.5"/></clipPath><clipPath id="m"><polygon fill="none" points="712.18 372.21 712.18 404.81 776.31 404.81 792.72 398.57 792.51 365.89 731.15 365.47 712.18 372.21"/></clipPath><clipPath id="n"><path fill="none" d="M670.71,291.29H651.12s-9.32,5.14-3.34,11.82a5,5,0,0,1,3.9,4.59l1.67,10s.55,7.93,5.28,7.93H685.9s1.66.13,1.66-1.95l-.27-12.94a15.75,15.75,0,0,0-2.65-7.37Z"/></clipPath><clipPath id="o"><path fill="none" d="M689.27,306.27l6.36.4.17-.13a5.06,5.06,0,0,1,7.05,1.22,5,5,0,0,1,.78,1.72c.87,3.52,1.36,9.36-4.62,10.25a1.87,1.87,0,0,1-2-1.22h0l-2.12-.53S692.58,308.79,689.27,306.27Z"/></clipPath><clipPath id="p"><path fill="none" d="M647.78,303.14l-19.54,4.51s-4,1-2.41,6c0,0,.64,6.75,4.5,6.59h18s4,.08,5-2.45l-1.67-10S652.2,304.42,647.78,303.14Z"/></clipPath><clipPath id="q"><path fill="none" d="M612.24,322.37a9,9,0,0,0,6-6.3,11.34,11.34,0,0,0-2.85-11.28,7.5,7.5,0,0,0-5.92-2.37l-12.49.29-3.89.1a6.43,6.43,0,0,0-4.77,2.28c-4.52,5.47-2,13.87-2,13.87,1.66,4.43,10.08,3.53,10.08,3.53Z"/></clipPath><clipPath id="r"><path fill="none" d="M525.1,351.53l-98.54,35.9S405,391.82,411.4,415.76l23.14,105.31s4.22,14.48,9.78,19.31a19.07,19.07,0,0,1,4.94,6.84l5.62,12.95s26.33,1.2,37.1-15.56l-5.88-12.36a9.7,9.7,0,0,1-.27-7.67c1.63-4.22,3.09-12.85-1.82-27.84,0,0-21.15-46.28-23.54-69.81L544.64,407s37.1-6.38,37.5-39.5a130.55,130.55,0,0,0-57-16Z"/></clipPath><clipPath id="s"><path fill="none" d="M524,360.72l.85-13.4s60.34-.65,64.38,14.44l-.41,10.64s.43,4-8.19,5.65l.66-2.71s6.76-.57,4.81-4.31c0,0-3.91-5.22-20.55-7.38-.47-.06-.94-.13-1.4-.21C561.56,363,549.52,361,524,360.72Z"/></clipPath><clipPath id="t"><path fill="none" d="M725.86,562.36l-25.15-5.91a19,19,0,1,0-2.07,35.11l25.42-3.47C734.54,586.3,735.43,577,735.43,577,737.23,564.46,725.86,562.36,725.86,562.36Z"/></clipPath><clipPath id="u"><path fill="none" d="M327.45,576.51l4.66,1.41,6-7a1.6,1.6,0,0,1,1.66-.52c2.25.61,8,2.91,15.8,11.38,0,0,5.2,5.34,5.32,10a1.64,1.64,0,0,1-.33,1l-1.48,2L349.25,610s-.15-4.78-5.84-9.87l-13.12-12.4Z"/></clipPath><clipPath id="v"><path fill="none" d="M480.41,235.24s-6.72,6.23-4.55,24.5L456,317.66s-16.42,35.63,5.88,42.75c0,0-.3-7.36,25.64-9.88a.23.23,0,0,0,.21-.23.36.36,0,0,0,0-.11c-.81-1.27-3.67-6.74-3.63-20.31a97,97,0,0,1,7.82-37.56c7-16.51,18.84-45.9,21.42-61.39l1-15L512.9,217a39.91,39.91,0,0,0-9.46,2.68,50.07,50.07,0,0,1-8,2.67C491.4,223.37,485.11,226.4,480.41,235.24Z"/></clipPath><clipPath id="w"><path fill="none" d="M421.28,288.65s-7,9,.33,18.26c0,0,4.32,7.31,14.61,6Z"/></clipPath><clipPath id="x"><path fill="none" d="M523.45,224s-16.9,13.16-19.3,8.23c0,0-1-4.52,14.46-21.18v1.25a5.39,5.39,0,0,0,5.2,5.21c6.94.25,19.67-.36,29.08-6.95a4.91,4.91,0,0,0,1.79-5.69h0s8.82,4.19,10.47,9.57c0,0,4,7.78-5.69,12.42C559.5,226.81,538,241.92,523.45,224Z"/></clipPath></defs><path fill="#AAC8F9" stroke="#6259B0" stroke-miterlimit="10" d="M301.29,661.34H85.21C59.1,661.22,37,639,37.15,612.85l2.3-544.21A47.29,47.29,0,0,1,86.94,21.55H87l217.08,1a47.29,47.29,0,0,1,47,47.45l-2.3,544.22a47.28,47.28,0,0,1-47.44,47.12Z"/><path fill="#F5F5F5" d="M303.72,43.23,261.63,43a10.45,10.45,0,0,0-10.26,10.64h0v7.63A10.47,10.47,0,0,1,241.18,72h-.11l-82-.38A10.46,10.46,0,0,1,148.9,60.89V53.25a10.47,10.47,0,0,0-10.18-10.73l-14.8-.07-36.84-.17a33.11,33.11,0,0,0-33.26,33v0L51.56,606.4a33.11,33.11,0,0,0,33,33.26h0l216.65,1a33.11,33.11,0,0,0,33.26-33v0l2.25-531.19a33.12,33.12,0,0,0-33-33.24Z"/><path fill="#F5F5F5" d="M211.77,540.28c-.25,6.41-.48,12.43-.68,17.43h31.12l-3.81-19.12Z"/><path fill="#F5F5F5" d="M85.3,548.28l.27,9.43H208c.2-5.3.43-11.17.67-17.23Z"/><polygon fill="#F5F5F5" points="239.97 538.5 243.8 557.71 301.17 557.71 300.48 534.67 239.97 538.5"/><polygon fill="#F5F5F5" points="214.88 269.9 225.73 207.01 197.31 204.9 197.31 269.9 214.88 269.9"/><polygon fill="#F5F5F5" points="82.74 513.36 51.9 525.44 51.81 547.29 83.66 545.27 82.74 513.36"/><polygon fill="#F5F5F5" points="82.6 508.45 80.91 449.87 80.89 449.87 80.89 429.21 52.3 432.24 51.92 520.43 82.59 508.42 82.6 508.45"/><polygon fill="#F5F5F5" points="80.89 383.09 52.52 379.34 52.32 427.56 80.89 424.53 80.89 383.09"/><polygon fill="#F5F5F5" points="292.33 430.08 291.14 446.87 257.63 450.48 260.23 463.77 298.26 460.9 297.69 441.85 300.72 429.24 292.33 430.08"/><polygon fill="#F5F5F5" points="231.95 465.9 258.67 463.88 252.85 434.07 229.53 436.42 231.95 465.9"/><polygon fill="#F5F5F5" points="232.2 468.99 234.24 493.86 237.87 527.96 239.35 535.42 300.38 531.56 298.36 464.01 232.2 468.99"/><path fill="#F5F5F5" d="M127.16,351.61l2.35,4L82.44,383.09v65.12l49.68-3.52L227.85,435l-3.5-42.69-91.46-11.95.6-4.61L224,387.59l-6-72.24L128.48,324l-.29-3.09,89.58-8.61-3.09-37.7H128.55L52.9,288.33l-.36,86.32,28.64,3.78ZM87.26,442s.36-53.7,0-55.7l38.41-20.43,5,73.39Z"/><polygon fill="#F5F5F5" points="289.2 430.4 254.4 433.91 257.04 447.43 288.23 444.06 289.2 430.4"/><path fill="#F5F5F5" d="M212.21,528.78c-.1,2.81-.21,5.62-.32,8.38l25.9-1.64-1.33-6.68Z"/><polygon fill="#F5F5F5" points="156.43 269.9 161 249.22 195.76 249.22 195.76 204.79 87.04 196.74 87.04 238.46 53.08 246.13 52.92 283.59 128.13 269.9 156.43 269.9"/><path fill="#F5F5F5" d="M229,146.27l-.92-3.8L269.56,126l-27-54.21a9.26,9.26,0,0,1-1.49.12l-45.88-.22,1.25,75.87Z"/><path fill="#F5F5F5" d="M291.89,117.2l-.05-74L261.63,43a10.45,10.45,0,0,0-10.26,10.64h0v7.63A10.8,10.8,0,0,1,246.93,70l27,54.25Z"/><path fill="#F5F5F5" d="M135.82,120.38l-3.5-77.94h-8.41l-32.84-.15L77.07,112Zm-7.48-70,1.11,63.47-43.64-6.39,9.56-57.08Z"/><path fill="#F5F5F5" d="M137.41,120.6v.67c.08,6.08.2,17,.29,28.73l57.18-2.33-1.24-75.94L159,71.57a10.46,10.46,0,0,1-10.17-10.73V53.2a10.47,10.47,0,0,0-10.18-10.73h-4.84l3.51,78.15Z"/><path fill="#F5F5F5" d="M72.47,111.28l13.85-69A33.09,33.09,0,0,0,53.81,75.21l-.15,34.4.15-1Z"/><polygon fill="#F5F5F5" points="82.38 196.39 53.3 194.24 53.1 241.35 82.38 234.73 82.38 196.39"/><polygon fill="#F5F5F5" points="72.16 112.81 53.66 110.15 53.34 186.45 57.32 186.75 72.16 112.81"/><polygon fill="#F5F5F5" points="130.9 507.56 131.39 446.3 82.46 449.76 84.19 509.77 130.9 507.56"/><path fill="#F5F5F5" d="M139.9,493.42l69.29,33.19c.82-21.69,1.56-42,1.49-43.26l1.5-.08.74-1.47c1,.5,1,.5.47,15.28-.29,8.25-.7,19.23-1.12,30.21h24L232.7,494,228,436.58l-90.53,9.13Z"/><polygon fill="#F5F5F5" points="309.74 391.75 308.96 383.67 225.9 392.31 229.4 434.87 301.11 427.64 309.74 391.75"/><polygon fill="#F5F5F5" points="195.76 253.88 164.74 253.88 161.2 269.9 195.76 269.9 195.76 253.88"/><path fill="#F5F5F5" d="M296.91,259.29l-77.7-5.38-3.16,18.36,3.27,39.84,81.95-7.88Zm-74.84,12.94,4.17-11.58,67.49,4.27,3.91,33.14-73.28,8.69Z"/><polygon fill="#F5F5F5" points="304.98 342.56 301.56 307.32 219.57 315.2 222.65 352.7 304.98 342.56"/><polygon fill="#F5F5F5" points="83.75 548.38 51.94 550.39 51.81 548.32 51.77 557.71 84.02 557.71 83.75 548.38"/><path fill="#F5F5F5" d="M336.11,99.7l.47,1.18.1-24.39a33.12,33.12,0,0,0-33-33.26H293.36v73.39Z"/><path fill="#F5F5F5" d="M209.12,528.3,138.4,494.42l-2.5-48.55-3,.3L132.4,509l-48.21,2.29v1.4h0l.93,32.41,123.57-7.81C208.89,534.35,209,531.32,209.12,528.3Zm-121.86-13,67.47-4.73L198.63,531,87.26,537Z"/><path fill="#F5F5F5" d="M316,181.22l2.89-17.16c-25.36-9.05-27.12-35.5-27-43.51L275.3,127.1l24.93,50Z"/><polygon fill="#F5F5F5" points="225.52 387.67 260.01 384.08 253.21 353.63 223.03 357.35 225.52 387.67"/><polygon fill="#F5F5F5" points="297.04 207.53 232.63 207.52 227.28 207.12 220.01 249.3 296.46 254.59 294.68 236.25 302.21 209.16 297.04 207.53"/><path fill="#F5F5F5" d="M295.46,199.77l.81-20.13L271,128.82l-39.3,15.54,13.5,55.41Zm-26-64.76,23.2,44.12-3.35,13.75-39.69-1.49-9.92-41.74Z"/><polygon fill="#F5F5F5" points="305.48 442.66 306.67 482.2 334.57 480.63 334.66 482.18 306.71 483.75 308.13 531.07 334.52 529.4 334.71 532.5 308.23 534.18 308.94 557.71 334.65 557.71 335.2 425.75 308.91 428.41 305.48 442.66"/><path fill="#F5F5F5" d="M135.87,122l-59.09-8.48L62,187.1l74.13,5.49C136.43,181.25,136.17,146.48,135.87,122Z"/><polygon fill="#F5F5F5" points="233.06 199.77 242 199.77 229.35 147.81 196.46 149.15 197.25 197.11 233.06 199.77"/><path fill="#F5F5F5" d="M137.64,192.7,195.7,197l-.79-47.78-57.19,2.33C137.84,167.71,137.89,185,137.64,192.7Z"/><polygon fill="#F5F5F5" points="305.43 347.19 254.76 353.44 261.56 383.92 308.51 379.04 305.43 347.19"/><path fill="#F5F5F5" d="M319.16,162.5l3.25-19.26,14,1.09.18-41.47-43.14,17.07C292.55,149.12,310.88,159.38,319.16,162.5Z"/><polygon fill="#F5F5F5" points="302.55 236.94 304.31 255.13 335.92 257.32 336.07 219.86 309.62 211.5 302.55 236.94"/><path fill="#F5F5F5" d="M317.59,392.3l-8.3,34.51,25.92-2.62.15-36.19c-7.95-2.09-14.89-3.8-18.62-4.52Z"/><polygon fill="#F5F5F5" points="300.1 200.35 336.11 211.73 336.19 191.25 300.83 182.11 300.1 200.35"/><path fill="#F5F5F5" d="M316.28,378.75c2.9.43,8.4,1.6,19.1,4.41l.34-79.12-26.43,2.54Z"/><polygon fill="#F5F5F5" points="308.99 303.49 335.73 300.91 335.9 261.98 304.77 259.83 308.99 303.49"/><path fill="#F5F5F5" d="M322.15,163.48q7.59,2.31,14.15,3.61l.08-19.64L325,146.56Z"/><path fill="#F5F5F5" d="M319,182l17.19,4.44.07-17.75q-6.67-1.33-14.4-3.66Z"/><path fill="#FFF" d="M83.75,548.38l.27,9.33h1.55l-.27-9.43,123.36-7.8c-.24,6.06-.47,11.93-.67,17.23h3.1c.2-5,.43-11,.68-17.43l26.63-1.69,3.81,19.12h1.59L240,538.5l60.51-3.83.69,23H309l-.7-23.53,26.48-1.68-.19-3.1L308.17,531l-1.43-47.32,28-1.57-.09-1.55-27.9,1.57-1.19-39.54L309,428.37l26.29-2.65v-1.57l-25.92,2.62,8.3-34.51-.85-8.82c3.73.72,10.67,2.43,18.62,4.52v-4.84c-10.7-2.81-16.2-4-19.1-4.41l-7-72.17L335.72,304v-3.13L309,303.49l-4.22-43.66L335.9,262v-4.66l-31.61-2.19L302.53,237l7.07-25.44,26.45,8.36v-8.13l-36-11.37.73-18.25,35.36,9.14v-4.81L319,182l2.86-17q7.72,2.34,14.4,3.66v-1.6q-6.56-1.31-14.15-3.61L325,146.56l11.38.89v-3.12l-14-1.09-3.25,19.26c-8.28-3.12-26.61-13.38-25.73-42.57l43.14-17.07v-2l-.47-1.18L293.4,116.56V43.17h-1.56l.05,74-18,7.12L246.89,70a10,10,0,0,1-4.33,1.76l27,54.21-41.51,16.43.92,3.8-32.53,1.33L195.19,71.7h-1.55l1.24,75.94L137.7,150c-.09-11.71-.21-22.65-.29-28.73v-.67h0L133.9,42.45h-1.55l3.5,77.94L77.11,112l14-69.69H86.36l-13.85,69-18.7-2.66-.15,1v.54l18.5,2.66-14.84,74-4-.3v7.79l29.08,2.15v38.34l-29.3,6.62v4.79l34-7.69V196.73l108.72,8.06v44.43H161l-4.57,20.68h-28.3L52.92,283.59v4.74l75.65-13.77H214.7l3.09,37.7-89.58,8.61.29,3.09,89.5-8.61,6,72.24-90.47-11.81-.6,4.61,91.46,11.95,3.5,42.69-95.73,9.66-49.68,3.52V383.09l47.07-27.46-2.35-4-46,26.82-28.64-3.78v4.69l28.37,3.75v41.44l-28.57,3v4.69l28.59-3V449.9h0l1.69,58.58h0L52,520.48v5L82.81,513.4l.92,31.91-31.85,2v1l.13,2.07Zm128.14-11.22c.11-2.76.22-5.57.32-8.38l24.25.06,1.33,6.68Zm27.46-1.74L237.87,528l-3.63-34.1-2-24.87,66.16-5,2,67.55ZM254.4,433.91l34.8-3.51-1,13.66L257,447.42Zm-1.55.16,5.82,29.81-26.72,2-2.42-29.48Zm45.41,26.83-38,2.87-2.6-13.29,33.51-3.61,1.19-16.79,8.39-.85-3,12.62Zm-45-107.27,6.8,30.45-34.49,3.59L223,357.35Zm8.35,30.29-6.8-30.48,50.67-6.25,3,31.81Zm34.9-129.33L220,249.3l7.27-42.18,5.35.4H297l5.17,1.63-7.53,27.09Zm-4.6-134c-.08,8,1.68,34.46,27,43.51L316,181.22l-15.78-4.08-24.93-50ZM271,128.82l25.32,50.82-.81,20.13H245.2l-13.5-55.41Zm-41.6,19,12.65,52h-8.94l-35.81-2.66-.79-48ZM195,149.23,195.7,197l-58.06-4.3c.25-7.75.2-25,.08-41.15ZM76.78,113.47,135.87,122c.3,24.53.56,59.3.26,70.64L62,187.1Zm149,93.54-10.9,62.89H197.31v-65Zm-61,46.87h31v16H161.2Zm51.31,18.39,3.16-18.36,77.7,5.38,4.36,44.94-81.95,7.88Zm85.52,35.05L305,342.56,222.65,352.7l-3.08-37.5Zm-75.67,85L309,383.67l.78,8.08-8.63,35.89-71.71,7.23ZM232.7,494l3.53,33.29h-24c.42-11,.83-22,1.12-30.21.51-14.78.51-14.78-.47-15.28l-.74,1.47-1.5.08c.07,1.29-.67,21.57-1.49,43.26L139.9,493.42l-2.45-47.71L228,436.58ZM131.39,446.3l-.49,61.26-46.71,2.21-1.73-60ZM84.28,512.76h0v-1.4L132.44,509l.5-62.87,3-.3,2.5,48.55,70.72,33.88c-.11,3-.23,6-.34,9.06L85.21,545.17Z"/><polygon fill="#ECECEC" points="154.73 510.59 87.26 515.32 87.26 536.98 198.63 530.95 154.73 510.59"/><polygon fill="#ECECEC" points="293.73 264.92 226.24 260.65 222.07 272.23 224.36 306.75 297.64 298.06 293.73 264.92"/><path fill="#ECECEC" d="M84.52,639.66l216.65,1a33.11,33.11,0,0,0,33.26-33v0l.22-50H51.77l-.16,37.8V607.4A33.08,33.08,0,0,0,84.52,639.66Z"/><polygon fill="#ECECEC" points="129.46 113.81 128.34 50.34 95.37 50.34 85.81 107.42 129.46 113.81"/><polygon fill="#ECECEC" points="289.27 192.88 292.62 179.13 269.43 135 239.66 149.65 249.58 191.39 289.27 192.88"/><path fill="#ECECEC" d="M87.26,386.29c.36,2,0,55.7,0,55.7l43.39-2.74-5-73.39Z"/><polygon fill="#ECECEC" points="231.96 429.9 229.66 396.62 304.07 387.05 304.07 392.79 295.07 423.39 231.96 429.9"/><path fill="#89B5F7" d="M176.92,153.94a9.07,9.07,0,1,1-9.08-9.06h0A9.07,9.07,0,0,1,176.92,153.94Z"/><circle cx="167.85" cy="153.63" r="6.03" fill="#D2E1F9"/><path fill="#D2E1F9" d="M307.94,515.93a3.87,3.87,0,1,1-3.87-3.87h0A3.87,3.87,0,0,1,307.94,515.93Z"/><path fill="#D2E1F9" d="M301.74,514.67l-.93-21.7-65.41,3.18a9.8,9.8,0,0,1-4.94-1l-92.78-46.86a6.75,6.75,0,0,1-3.68-5.65l-12.63-244.9a4.12,4.12,0,0,1,3.9-4.31h.5l39.76,2.94V152.87h4.65v44.07a4.06,4.06,0,0,1-1.31,3,4.15,4.15,0,0,1-3.09,1.08l-39.72-2.94,12.59,244.27a2.08,2.08,0,0,0,1.13,1.74l92.78,46.85a5.16,5.16,0,0,0,2.61.56l66-3.21a4.15,4.15,0,0,1,3,1.07,4.05,4.05,0,0,1,1.34,2.87l1,22.24Z"/><circle cx="128.97" cy="304.02" r="11.74" fill="#D2E1F9" transform="translate(-183.43 411.11) rotate(-85.93)"/><circle cx="128.97" cy="304.02" r="8.15" fill="#FAFAFA"/><path fill="#D2E1F9" d="M129,312.76a8.74,8.74,0,1,1,8.7-8.78v0A8.74,8.74,0,0,1,129,312.76Zm0-16.31a7.57,7.57,0,1,0,7.57,7.57A7.57,7.57,0,0,0,129,296.45Z"/><path fill="#89B5F7" d="M198.12,254.78h-55.9a4.92,4.92,0,0,0-4.92,4.92h0v20.24a4.92,4.92,0,0,0,4.92,4.92h.65v4.83l5.6-4.83h49.65a4.92,4.92,0,0,0,4.92-4.92h0V259.7a4.92,4.92,0,0,0-4.92-4.92Z"/><path fill="#FFF" d="M149.87,269.51a3.36,3.36,0,1,1,3.49,3.23h-.12a3.22,3.22,0,0,1-3.37-3.05Zm5.81,0a2.46,2.46,0,1,0-2.49,2.43h.05a2.37,2.37,0,0,0,2.44-2.3Z"/><path fill="#FFF" d="M162.8,270.27a2.33,2.33,0,0,1-2.2,2.45h-.22a2,2,0,0,1-1.71-.81v.76h-.83V266h.87v2.63a2,2,0,0,1,1.67-.76,2.32,2.32,0,0,1,2.42,2.22Zm-.88,0A1.61,1.61,0,1,0,160.3,272a1.59,1.59,0,0,0,1.63-1.55A1.09,1.09,0,0,0,161.92,270.27Z"/><path fill="#FFF" d="M162.34,274.18l.28-.66a1.15,1.15,0,0,0,.71.22c.46,0,.71-.29.71-.84v-5h.87v5a1.43,1.43,0,0,1-1.26,1.58.82.82,0,0,1-.27,0A1.74,1.74,0,0,1,162.34,274.18Zm1.55-7.78a.58.58,0,0,1,.57-.57h0a.57.57,0,1,1,.15,1.13.38.38,0,0,1-.15,0,.56.56,0,0,1-.58-.54Z"/><path fill="#FFF" d="M170.87,270.56H167a1.63,1.63,0,0,0,1.74,1.4,1.77,1.77,0,0,0,1.38-.58l.48.57a2.45,2.45,0,0,1-1.89.77,2.4,2.4,0,0,1-2.56-2.22,1.77,1.77,0,0,1,0-.23,2.34,2.34,0,0,1,2.25-2.43h.15a2.29,2.29,0,0,1,2.36,2.23.89.89,0,0,1,0,.23A1.09,1.09,0,0,0,170.87,270.56Zm-3.89-.62h3.07a1.54,1.54,0,0,0-3.07,0Z"/><path fill="#FFF" d="M171.64,270.27a2.39,2.39,0,0,1,2.35-2.43h.18a2.14,2.14,0,0,1,2,1l-.66.42a1.48,1.48,0,0,0-1.3-.68,1.68,1.68,0,0,0,0,3.36,1.48,1.48,0,0,0,1.3-.68l.66.41a2.15,2.15,0,0,1-2,1,2.41,2.41,0,0,1-2.53-2.27Z"/><path fill="#FFF" d="M180,272.39a1.64,1.64,0,0,1-1.05.33,1.36,1.36,0,0,1-1.51-1.19,1.61,1.61,0,0,1,0-.31V268.6h-.82v-.72h.82v-1h.86v1h1.38v.72H178.3v2.59a.69.69,0,0,0,.59.79h.16a1,1,0,0,0,.68-.23Z"/><path fill="#FFF" d="M180.88,266.4a.58.58,0,0,1,.59-.57h0a.57.57,0,0,1,.55.59.58.58,0,0,1-.59.55A.57.57,0,0,1,180.88,266.4Zm.16,1.48h.86v4.79H181Z"/><path fill="#FFF" d="M187.79,267.88l-2.1,4.79h-.88l-2.09-4.79h.9l1.64,3.84,1.68-3.84Z"/><path fill="#FFF" d="M192.77,270.56h-3.88a1.61,1.61,0,0,0,1.73,1.4,1.77,1.77,0,0,0,1.38-.58l.48.57a2.61,2.61,0,0,1-4.46-1.68,2.34,2.34,0,0,1,2.25-2.43h.15a2.29,2.29,0,0,1,2.37,2.22,1,1,0,0,1,0,.24A2.28,2.28,0,0,1,192.77,270.56Zm-3.88-.62H192a1.54,1.54,0,0,0-3.07,0Z"/><path fill="#D2E1F9" d="M179.65,123.49A11.62,11.62,0,1,0,158,129.36h0c.45.75,1,1.29,1.57,2.08l6.75,8.93a2.09,2.09,0,0,0,2.94.41,2.27,2.27,0,0,0,.41-.41l6.63-8.79a24,24,0,0,0,1.7-2.18h0A11.63,11.63,0,0,0,179.65,123.49ZM168,128.55a5.11,5.11,0,1,1,5.12-5.11,5.11,5.11,0,0,1-5.12,5.11Z"/><path fill="#89B5F7" d="M104.42,581.31h-2.17v-.78h5.23v.78h-2.17v5.54h-.89Z"/><path fill="#89B5F7" d="M107.39,584.45a2.49,2.49,0,1,1,2.53,2.45h0a2.38,2.38,0,0,1-2.5-2.26Zm4.1,0a1.61,1.61,0,1,0-1.61,1.61A1.61,1.61,0,0,0,111.49,584.45Z"/><path fill="#89B5F7" d="M116.26,586.57a1.64,1.64,0,0,1-1.05.33,1.36,1.36,0,0,1-1.51-1.19,1.61,1.61,0,0,1,0-.31v-2.62h-.82v-.72h.82v-1h.86v1h1.37v.72h-1.37v2.59a.69.69,0,0,0,.59.79h.16A1.13,1.13,0,0,0,116,586Z"/><path fill="#89B5F7" d="M121.1,584v2.89h-.82v-.63a1.79,1.79,0,0,1-1.58.68c-1.08,0-1.76-.58-1.76-1.41s.49-1.4,1.92-1.4h1.37V584c0-.73-.42-1.15-1.28-1.15a2.53,2.53,0,0,0-1.52.51l-.36-.65a3.24,3.24,0,0,1,2-.61A1.73,1.73,0,0,1,121.1,584Zm-.87,1.43v-.67h-1.34c-.85,0-1.1.33-1.1.74s.4.77,1.06.77a1.39,1.39,0,0,0,1.38-.88Z"/><path fill="#89B5F7" d="M122.7,580.15h.87v6.7h-.87Z"/><path fill="#89B5F7" d="M132.16,580.15v6.7h-.83v-.76a2,2,0,0,1-1.7.81,2.44,2.44,0,0,1,0-4.88,2,2,0,0,1,1.67.77v-2.64Zm-.86,4.3a1.61,1.61,0,1,0-1.6,1.69,1.56,1.56,0,0,0,1.6-1.53A.85.85,0,0,0,131.3,584.45Z"/><path fill="#89B5F7" d="M133.65,580.58a.59.59,0,1,1,1.18,0,.57.57,0,0,1-.57.57h0a.56.56,0,0,1-.59-.53Zm.15,1.48h.87v4.79h-.87Z"/><path fill="#89B5F7" d="M135.72,586.34l.36-.68a3.11,3.11,0,0,0,1.68.49c.8,0,1.14-.24,1.14-.65,0-1.07-3-.14-3-2,0-.85.77-1.43,2-1.43a3.51,3.51,0,0,1,1.74.43l-.37.69a2.48,2.48,0,0,0-1.38-.38c-.76,0-1.13.28-1.13.66,0,1.13,3,.21,3,2.06,0,.87-.79,1.42-2.06,1.42A3.41,3.41,0,0,1,135.72,586.34Z"/><path fill="#89B5F7" d="M143.54,586.57a1.71,1.71,0,0,1-1,.33,1.37,1.37,0,0,1-1.52-1.2,1.5,1.5,0,0,1,0-.3v-2.62h-.81v-.72H141v-1h.87v1h1.37v.72h-1.37v2.59a.69.69,0,0,0,.59.79h.16a1.14,1.14,0,0,0,.67-.22Z"/><path fill="#89B5F7" d="M148.37,584v2.89h-.82v-.63a1.76,1.76,0,0,1-1.57.68c-1.08,0-1.77-.58-1.77-1.41s.5-1.4,1.92-1.4h1.38V584c0-.73-.43-1.15-1.28-1.15a2.53,2.53,0,0,0-1.52.51l-.36-.65a3.18,3.18,0,0,1,2-.61A1.73,1.73,0,0,1,148.37,584Zm-.86,1.43v-.67h-1.34c-.86,0-1.1.33-1.1.74s.4.77,1.06.77a1.39,1.39,0,0,0,1.38-.88Z"/><path fill="#89B5F7" d="M154.52,584.09v2.76h-.87v-2.66c0-.93-.47-1.4-1.29-1.4a1.42,1.42,0,0,0-1.52,1.32,2.44,2.44,0,0,0,0,.27v2.47H150v-4.79h.83v.73a2,2,0,0,1,1.72-.77,1.85,1.85,0,0,1,2,1.71A2.17,2.17,0,0,1,154.52,584.09Z"/><path fill="#89B5F7" d="M155.71,584.45a2.39,2.39,0,0,1,2.35-2.43h.18a2.14,2.14,0,0,1,1.95,1l-.66.42a1.48,1.48,0,0,0-1.3-.68,1.68,1.68,0,0,0,0,3.36,1.48,1.48,0,0,0,1.3-.68l.66.41a2.14,2.14,0,0,1-1.95,1,2.41,2.41,0,0,1-2.53-2.27Z"/><path fill="#89B5F7" d="M165.54,584.74h-3.88a1.61,1.61,0,0,0,1.73,1.4,1.81,1.81,0,0,0,1.38-.57l.48.56a2.61,2.61,0,0,1-4.46-1.68A2.34,2.34,0,0,1,163,582h.15a2.29,2.29,0,0,1,2.37,2.22,1,1,0,0,1,0,.24A2.28,2.28,0,0,1,165.54,584.74Zm-3.88-.62h3.07a1.54,1.54,0,0,0-3.07,0Z"/><path fill="#89B5F7" d="M110.09,593.93V609H106.6V596.73h-3v-2.8Z"/><path fill="#89B5F7" d="M116.79,607.07a4.91,4.91,0,0,1-.59,2.15l-1.22,3.1h-2.14l1-3.42a1.87,1.87,0,0,1-1.16-1.83,2.08,2.08,0,1,1,4.16,0Z"/><path fill="#89B5F7" d="M123.83,593.93V609h-3.49V596.73h-3v-2.8Z"/><path fill="#89B5F7" d="M126.45,601.47c0-5,2.76-7.8,6.47-7.8s6.46,2.83,6.46,7.8-2.74,7.79-6.46,7.79S126.45,606.44,126.45,601.47Zm9.41,0c0-3.42-1.2-4.85-2.94-4.85s-2.93,1.43-2.93,4.85,1.2,4.85,2.93,4.85S135.86,604.89,135.86,601.47Z"/><path fill="#89B5F7" d="M141.08,601.47c0-5,2.75-7.8,6.46-7.8s6.46,2.83,6.46,7.8-2.74,7.79-6.46,7.79S141.08,606.44,141.08,601.47Zm9.41,0c0-3.42-1.21-4.85-3-4.85s-2.93,1.43-2.93,4.85,1.2,4.85,2.93,4.85S150.49,604.89,150.49,601.47Z"/><path fill="#89B5F7" d="M182.08,602.37V609h-3.36v-6.12c0-1.87-.84-2.73-2.2-2.73-1.51,0-2.56,1-2.56,3V609H170.6v-6.12c0-1.87-.8-2.73-2.2-2.73s-2.54,1-2.54,3V609H162.5V597.42h3.21v1.34a4.68,4.68,0,0,1,3.64-1.51,4.34,4.34,0,0,1,3.81,1.89,5.22,5.22,0,0,1,4.18-1.89C180.1,597.25,182.08,598.84,182.08,602.37Z"/><circle cx="81.69" cy="592.72" r="13" fill="#D2E1F9"/><path fill="#FAFAFA" d="M76.44,595.12a20.73,20.73,0,0,1,3.34-.2c2.12-.06,5.15-.11,8.79-.15l-.27.58L85,591.52l-.21-.24L85,591l3.28-4.09.31.66H76.44l.36-.36c0,3.94-.08,7.26-.15,9.59a22.53,22.53,0,0,1-.21,3.67,23.72,23.72,0,0,1-.22-3.67c-.06-2.33-.11-5.65-.14-9.59v-.36H89.43l-.53.66-3.3,4.07V591l3.26,3.88.49.58h-.76c-3.64,0-6.67-.08-8.79-.14A18.9,18.9,0,0,1,76.44,595.12Z"/><path fill="#D2E1F9" d="M291.94,570.58H252.65a7.52,7.52,0,0,0-7.52,7.52h0V609a7.52,7.52,0,0,0,7.52,7.52h1v7.37l8.56-7.37H292a7.52,7.52,0,0,0,7.52-7.52h0V578.1a7.51,7.51,0,0,0-7.5-7.52Z"/><path fill="#FAFAFA" d="M256.4,584.77v15.86a.61.61,0,0,0,.61.61h33.26a.62.62,0,0,0,.62-.62l-.08-5.81a.58.58,0,0,0-.12-.36l-4.77-6.38a.67.67,0,0,0-.49-.25h-5.5a.61.61,0,0,1-.61-.61h0v-2.39a.62.62,0,0,0-.62-.62H257A.61.61,0,0,0,256.4,584.77Z"/><path fill="#D2E1F9" d="M280.87,589.17v5.09a.37.37,0,0,0,.36.35l7.34-.13a.34.34,0,0,0,.34-.36.33.33,0,0,0-.06-.19l-3.43-5.07a.33.33,0,0,0-.3-.15l-3.91.1a.35.35,0,0,0-.34.36Z"/><rect width="35.82" height="1.11" x="255.73" y="601.73" fill="#FAFAFA"/><path fill="#D2E1F9" d="M267.57,602.15a3.54,3.54,0,1,1-3.54-3.54h0a3.53,3.53,0,0,1,3.54,3.52Z"/><path fill="#FAFAFA" d="M266.12,602.15a2.09,2.09,0,1,1-2.1-2.08h0A2.1,2.1,0,0,1,266.12,602.15Z"/><path fill="#D2E1F9" d="M279.29,601.24c-.09,0-.16-3.82-.16-8.54s.07-8.55.16-8.55.16,3.82.16,8.55S279.38,601.24,279.29,601.24Z"/><path fill="#D2E1F9" d="M286.88,602.15a3.54,3.54,0,1,1-3.54-3.54h0a3.53,3.53,0,0,1,3.54,3.52Z"/><path fill="#FAFAFA" d="M285.42,602.15a2.09,2.09,0,1,1-2.1-2.08h0A2.09,2.09,0,0,1,285.42,602.15Z"/><path fill="#D2E1F9" d="M283.35,595.61c0,.09-.51.16-1.14.16s-1.13-.07-1.13-.16.51-.16,1.13-.16S283.35,595.52,283.35,595.61Z"/><polygon fill="#FFF" stroke="#351D66" stroke-miterlimit="10" points="484.11 323.51 514.8 320.62 536.84 231.77 528.53 222.02 518.42 219.13 505.42 248.03 480.86 307.62 484.11 323.51"/><path fill="#E71D35" d="M530.53,229.85s-32.35,98.31-5.65,117.47c0,0,61.87,0,64.38,14.44,0,0,22.62-7.85,13.82-34.86,0,0,.95-68.47,7.54-80.72,0,0,2.2-25.75-24.18-28.89l-21.25-2.9Z" data-primary="true"/><g clip-path="url(#a)"><path fill="#231F20" d="M536.84,231.77s-2.54,39.68,14.4,50a41.45,41.45,0,0,1,9.53,7.66C571.05,300.92,590,327.09,575.84,352c0,0-18.38-5.12-51-4.72,0,0-19.59-8-5.62-71.12,0,0,4.72-30.1,11.27-46.35A6.49,6.49,0,0,0,536.84,231.77Z" opacity=".2" style="isolation:isolate"/></g><path fill="none" stroke="#351D66" stroke-miterlimit="10" d="M530.53,229.85s-32.35,98.31-5.65,117.47c0,0,61.87,0,64.38,14.44,0,0,22.62-7.85,13.82-34.86,0,0,.95-68.47,7.54-80.72,0,0,2.2-25.75-24.18-28.89l-21.25-2.9Z"/><path fill="#E71D35" d="M539.32,291.72s1.26-3.14,8.17-3.45l31.41,1.57-12.56-38.77a23.09,23.09,0,0,1,2.37-19.65c3.4-5.24,9.53-9.82,20.55-9.11,0,0,17.59-3.14,23.25,29.52l17.27,71s2.51,6.91-20.42,5.65l-64-2.1a9.9,9.9,0,0,1-8.53-5.31.17.17,0,0,0-.07-.13l-8.48-.63s7.54-2.88,9.13-15.45c0,0,1.2-9.17-3.79-13.36Z" data-primary="true"/><g clip-path="url(#b)"><path d="M584.78,222.42s14,.88,20.17,32.45l9.68,44.94A12.94,12.94,0,0,1,605.29,315l-42.88,11.31,55.7,1.76s13,1.73,12.22-7.91l-17.82-68.37S608,217.6,584.78,222.42Z" opacity=".2" style="isolation:isolate"/></g><path fill="none" stroke="#351D66" stroke-miterlimit="10" d="M539.32,291.72s1.26-3.14,8.17-3.45l31.41,1.57-12.56-38.77a23.09,23.09,0,0,1,2.37-19.65c3.4-5.24,9.53-9.82,20.55-9.11,0,0,17.59-3.14,23.25,29.52l17.27,71s2.51,6.91-20.42,5.65l-64-2.1a9.9,9.9,0,0,1-8.53-5.31.17.17,0,0,0-.07-.13l-8.48-.63s7.54-2.88,9.13-15.45c0,0,1.2-9.17-3.79-13.36Z"/><ellipse cx="444.63" cy="558.8" fill="#D2E1F9" stroke="#351D66" stroke-miterlimit="10" stroke-width="1" rx="65.71" ry="69.94" transform="translate(-122.68 992.52) rotate(-88.89)"/><path fill="#89B5F7" d="M510.54,539.62s13.66,69.93-60.38,82.93c0,0-30.34,5.42-49.48-21.67l66.45,3.25,32.87-65Z"/><ellipse cx="444.51" cy="556.39" fill="#D2E1F9" stroke="#351D66" stroke-miterlimit="10" stroke-width="1" rx="64.95" ry="60.55" transform="translate(-120.39 990.04) rotate(-88.89)"/><ellipse cx="439.97" cy="558.17" fill="#E6E7E8" stroke="#351D66" stroke-miterlimit="10" rx="35.75" ry="38"/><path fill="#7DDCF2" d="M633.59,566.6l38.29-1.6,28.82-60.4-11.84-.4s-10.92,1.85-16.1,16.52c-1.41,4-2.91,8-4.67,11.8l-7,15.26S656.48,561.86,633.59,566.6Z"/><path d="M633.59,566.6l38.29-1.6,28.82-60.4-11.84-.4s-10.92,1.85-16.1,16.52c-1.41,4-2.91,8-4.67,11.8l-7,15.26S656.48,561.86,633.59,566.6Z" opacity=".2" style="isolation:isolate"/><ellipse cx="733.85" cy="573.71" fill="#D2E1F9" rx="69.39" ry="62.36" transform="translate(-62.48 1056.97) rotate(-69.27)"/><g clip-path="url(#c)"><path fill="#89B5F7" d="M720.55,507.82s30.37-6.65,53.67,15.46a60.16,60.16,0,0,1,18.3,47.11c-1.22,21.42-9.37,54.51-46,68.9Z"/></g><ellipse cx="733.85" cy="573.71" fill="none" stroke="#351D66" stroke-miterlimit="10" stroke-width="1" rx="69.39" ry="62.36" transform="translate(-62.48 1056.97) rotate(-69.27)"/><ellipse cx="723.52" cy="576.33" fill="#D2E1F9" stroke="#351D66" stroke-miterlimit="10" stroke-width="1" rx="69.16" ry="64.82" transform="translate(-71.6 1049.01) rotate(-69.27)"/><path fill="#E6E7E8" stroke="#351D66" stroke-miterlimit="10" d="M724.81,534.84c-21.23,0-38.44,18.68-38.44,41.74s17.21,41.73,38.44,41.73,38.45-18.68,38.45-41.73S746.05,534.84,724.81,534.84Zm34.86,41.88a43,43,0,0,1-1.23,10.22l-11.94-14.1a30,30,0,0,1-4.78-12.27l-3-18.73c12.28,5.16,20.95,18.84,20.95,34.88Zm-45.58-33.37a115.43,115.43,0,0,1-.5,21.11s-7.55,12-17.11,16.82a43.39,43.39,0,0,1-.24-4.56c0-14.67,7.28-27.35,17.85-33.37ZM728,613.83c-9.75,0-18.48-5.16-24.3-13.27,2-.85,16.67-6.7,30.59-1.69l14.46,5.9A29.06,29.06,0,0,1,728,613.83Z"/><path fill="#2ec4b6" d="M796.77,500.33l-16.36,2.79-88.56,1.6s-12.62-1.4-19.13,16.5c-1.19,3.28-2.45,6.55-3.9,9.73l-7.69,16.85s-6.38,19.2-35.5,19.2l-47.87,6.38-69.12,1.3-1.5-20,4.59-6.78-1.19-8.18s-5.39,3.2-11.17,3c0,0-3.79,1.59-15.36-1.6L372.7,510.7s-13.56-2.39-14-21.54l8.78-34.71s4.39-6.78,10.77-8.38L456,412.17l122.07,33.11L563,476.79s-5.36,12.74-1.34,23.77a68.81,68.81,0,0,1,2.57,8.31L576.16,561l16.75.2s11.77-6.19,20-25.54L650,452.46l-11.78-.59a6.15,6.15,0,0,1-5.51-4.17L608.1,375.05a9.37,9.37,0,0,1,4.08-11l9.22-5.49a4.24,4.24,0,0,0,1.81-5.12L611.66,322s5.06-1.07,6.26-7.32a11.93,11.93,0,0,0-1.59-8.45,7.42,7.42,0,0,0-7.35-3.77l12.42-.73a3.8,3.8,0,0,0,2.46-1.08l14.49-14.15a4.3,4.3,0,0,1,3-1.21h22.56a3.61,3.61,0,0,1,2.71,1.24l4.12,4.75,1.59,20-8,10.77,7.28,19.05a4.5,4.5,0,0,0,4.2,2.89h4.48s3.59.8,6.38,6l33.12,84.18-8,28.72L784.4,486a12.51,12.51,0,0,1,1.62.66,16.9,16.9,0,0,1,7.76,7.73Z"/><g clip-path="url(#d)"><path d="M719.78,434.11l-8,28.72L784.4,486c9,2.41,12.37,14.36,12.37,14.36l-16.36,2.79c-2.74-11.58-14-14.51-14-14.51l-69.3-16.74c-21-7-39.33,28-39.33,28l-23.36,53.73c-1.95,7-13.24,14-13.24,14l-42,5.85L509.87,575l1.56-4.28,58.8-.78c27.64,1.17,44.38-25.7,44.38-25.7l40.5-91.5,38.15.78-42.72-107.8a3.18,3.18,0,0,0-3.45-2h0a5.82,5.82,0,0,1-6.43-3.93l-9.35-28.39-5.85-13.24,14.13-12.92,3.79,7.86L664.32,322l8.38,22h7.58s4.76,1,7.48,8.39Z" opacity=".2" style="isolation:isolate"/></g><path fill="none" stroke="#351D66" stroke-miterlimit="10" d="M796.77,500.33l-16.36,2.79-88.56,1.6s-12.62-1.4-19.13,16.5c-1.19,3.28-2.45,6.55-3.9,9.73l-7.69,16.85s-6.38,19.2-35.5,19.2l-47.87,6.38-69.12,1.3-1.5-20,4.59-6.78-1.19-8.18s-5.39,3.2-11.17,3c0,0-3.79,1.59-15.36-1.6L372.7,510.7s-13.56-2.39-14-21.54l8.78-34.71s4.39-6.78,10.77-8.38L456,412.17l122.07,33.11L563,476.79s-5.36,12.74-1.34,23.77a68.81,68.81,0,0,1,2.57,8.31L576.16,561l16.75.2s11.77-6.19,20-25.54L650,452.46l-11.78-.59a6.15,6.15,0,0,1-5.51-4.17L608.1,375.05a9.37,9.37,0,0,1,4.08-11l9.22-5.49a4.24,4.24,0,0,0,1.81-5.12L611.66,322s5.06-1.07,6.26-7.32a11.93,11.93,0,0,0-1.59-8.45,7.42,7.42,0,0,0-7.35-3.77l12.42-.73a3.8,3.8,0,0,0,2.46-1.08l14.49-14.15a4.3,4.3,0,0,1,3-1.21h22.56a3.61,3.61,0,0,1,2.71,1.24l4.12,4.75,1.59,20-8,10.77,7.28,19.05a4.5,4.5,0,0,0,4.2,2.89h4.48s3.59.8,6.38,6l33.12,84.18-8,28.72L784.4,486a12.51,12.51,0,0,1,1.62.66,16.9,16.9,0,0,1,7.76,7.73Z"/><path fill="#D2E1F9" d="M475.55,439s.47,6.51,23.7,6.51c2.32,0,86.88-.47,86.88-.47a13.08,13.08,0,0,0,11.08-11,16.83,16.83,0,0,0-1.13-9.14l-5.77-14.23s-2.78-8.83-16.26-10.22l-21.37-4.18-91.53,20.91Z"/><g clip-path="url(#e)"><path fill="#89B5F7" d="M484.47,433.66l-6.86,7.95s4,3.61,17,3.61l91.55-.21s15.39-1.86,10-20.15l-5.77-14.23S522.75,455.7,484.47,433.66Z"/></g><path fill="none" stroke="#351D66" stroke-miterlimit="10" d="M475.55,439s.47,6.51,23.7,6.51c2.32,0,86.88-.47,86.88-.47a13.08,13.08,0,0,0,11.08-11,16.83,16.83,0,0,0-1.13-9.14l-5.77-14.23s-2.78-8.83-16.26-10.22l-21.37-4.18-91.53,20.91Z"/><path fill="#FFA01C" d="M346.07,555.85a5,5,0,0,0,1.28-3.58c-.21-4.45.63-16,12.26-29.89l28.48-33.79s22.69-23.65,35.24-56.47l37.35-59,23.95-55.42s22.2-8.2,35.23-2.41c0,0-3.49,26.36,5,32l-.85,13.4-27.33,57.4-55.51,69L421.4,526.72s-26.13,51.79-44.4,54.44a4.06,4.06,0,0,0-2.48,1.29l-10,11.37s-4.5-21.26-28.7-26.66h0Z" data-secondary="true"/><g clip-path="url(#f)"><path d="M358.42,580.3s13-3.61,15.17-15.89c0,0,5.78-49.12,39.73-67.9,0,0,106.18-120.63,95.35-184.2s-.73-4.33-.73-4.33l2.17-10.84,45.51,29.62,10,36.89L471.1,491.45,379.37,596.19l-23.12.72Z" opacity=".2" style="isolation:isolate"/></g><path fill="none" stroke="#351D66" stroke-miterlimit="10" d="M346.07,555.85a5,5,0,0,0,1.28-3.58c-.21-4.45.63-16,12.26-29.89l28.48-33.79s22.69-23.65,35.24-56.47l37.35-59,23.95-55.42s22.2-8.2,35.23-2.41c0,0-3.49,26.36,5,32l-.85,13.4-27.33,57.4-55.51,69L421.4,526.72s-26.13,51.79-44.4,54.44a4.06,4.06,0,0,0-2.48,1.29l-10,11.37s-4.5-21.26-28.7-26.66h0Z"/><path fill="#F9C7A5" stroke="#351D66" stroke-miterlimit="10" d="M545.87,163.17a47.93,47.93,0,0,1-1,9.85c-2.93,13.69-11.8,23.65-22.3,23.65a16.67,16.67,0,0,1-4.76-.7c-10.59-3.15-18.56-16.63-18.56-32.8,0-18.5,10.44-33.5,23.32-33.5S545.87,144.67,545.87,163.17Z"/><path fill="#F9C7A5" d="M555.91,208.11c-11.37,12-37.1,9-37.1,9l-1-21.12a16.67,16.67,0,0,0,4.76.7c10.5,0,19.37-10,22.3-23.65l.29-.22Z"/><g clip-path="url(#g)"><path fill="#F7A091" d="M517.79,196l1,13.23S548,208,545.15,172.84C545.14,172.81,537.76,200.8,517.79,196Z"/></g><path fill="none" stroke="#351D66" stroke-miterlimit="10" d="M555.91,208.11c-11.37,12-37.1,9-37.1,9l-1-21.12a16.67,16.67,0,0,0,4.76.7c10.5,0,19.37-10,22.3-23.65l.29-.22Z"/><path fill="#FFA01C" d="M510.44,134.51s5.68,15,34.7,23.93a24.28,24.28,0,0,1,0,14.37l9.58,32s8.08,3.59,10.47,9.57c0,0,34.41,1.2,30.82-14.36,0,0-5.69-20.64-34.71-37.1a50.85,50.85,0,0,0,1.45-17.46,21.32,21.32,0,0,0-17.3-18.3c-7.49-1.43-19.75-2.69-29.74,1.44a24.4,24.4,0,0,0-12.49,12.1c-3.08,6.41-10.88,19.6-23.9,22.52,0,0-15.26,3.89-34.71-8.68,0,0-60.34-46.77-71.91,11.87,0,0,2-22.34,58.65-8.38,0,0,29.12,10,41.49,7.58,0,0-10.78,9.58-69,5.59,0,0-97.74-10-69.81,41.09,0,0,33.11-56.25,58.24-34.11,0,0,70,61,85,58.64l3.19-1.59s5.7-12.54,19.1-13.39c0,0,8.55-4.56,13.39-4.85l5.71-6-.87-15s-14.72-1.88-18.57-28.85C499.22,167.12,496.57,147.22,510.44,134.51Z" data-secondary="true"/><g clip-path="url(#h)"><path d="M375.23,173.11s21.09-8,48.17,14.25c0,0,39.05,27.93,64.42,5.7,0,0,8.84-7.41,12.26-21.95,0,0,34.83-15.07,45.06-12.67,0,0,34.15,33.69,20.22,55.69a.1.1,0,0,1-.13.05l-.05-.05c-.13-1-1.27-4.45-10.46-9.27l1.19,3.29s-7.82,11.06-37.1,9l-.2-6.07-5.71,6s-11.4,2.85-13.39,4.85c0,0-12.26-.29-19.1,13.39l-3.19,1.59s-4,.8-10-2.79c0,0-11.27-4.39-46.28-31.61l-24.53-20.35A23.79,23.79,0,0,0,375.23,173.11Z" opacity=".2" style="isolation:isolate"/></g><path fill="none" stroke="#351D66" stroke-miterlimit="10" d="M510.44,134.51s5.68,15,34.7,23.93a24.28,24.28,0,0,1,0,14.37l9.58,32s8.08,3.59,10.47,9.57c0,0,34.41,1.2,30.82-14.36,0,0-5.69-20.64-34.71-37.1a50.85,50.85,0,0,0,1.45-17.46,21.32,21.32,0,0,0-17.3-18.3c-7.49-1.43-19.75-2.69-29.74,1.44a24.4,24.4,0,0,0-12.49,12.1c-3.08,6.41-10.88,19.6-23.9,22.52,0,0-15.26,3.89-34.71-8.68,0,0-60.34-46.77-71.91,11.87,0,0,2-22.34,58.65-8.38,0,0,29.12,10,41.49,7.58,0,0-10.78,9.58-69,5.59,0,0-97.74-10-69.81,41.09,0,0,33.11-56.25,58.24-34.11,0,0,70,61,85,58.64l3.19-1.59s5.7-12.54,19.1-13.39c0,0,8.55-4.56,13.39-4.85l5.71-6-.87-15s-14.72-1.88-18.57-28.85C499.22,167.12,496.57,147.22,510.44,134.51Z"/><path fill="#E71D35" stroke="#351D66" stroke-miterlimit="10" d="M524.1,318.81s1.08,2.39,4.23,1.49c0,0,5-1.59,7.75-9.58a25.83,25.83,0,0,0,1.27-11.47c-.5-4.33-2.22-9.38-7.67-8,0,0,6.19,2.19,5.59,13.36C535.27,304.65,534.47,318,524.1,318.81Z" data-primary="true"/><g opacity=".2"><path d="M539.94,321.86h-.72a.42.42,0,0,1,.08-.84c8.48.75,10.29-14.24,10.31-14.39,1-7.54-.55-11.08-2-12.71a5,5,0,0,0-3.52-1.78.41.41,0,0,1-.44-.38v0a.42.42,0,0,1,.41-.43h0a5.81,5.81,0,0,1,4.17,2.05c2.32,2.57,3.07,7.08,2.24,13.38C550.38,307.33,548.6,321.86,539.94,321.86Z"/></g><path fill="#E71D35" d="M486.42,364.13l1.52-13.63s-23.64,1.69-26,9.91l-1.24,12.73S461.64,368,486.42,364.13Z" data-primary="true"/><g clip-path="url(#i)"><path d="M486.42,364.13l.58-6.59s-18.44,1.32-25.29,9.75l-1,5.85S464.34,367,486.42,364.13Z" opacity=".2" style="isolation:isolate"/></g><path fill="none" stroke="#351D66" stroke-miterlimit="10" d="M486.42,364.13l1.52-13.63s-23.64,1.69-26,9.91l-1.24,12.73S461.64,368,486.42,364.13Z"/><path fill="#F09FDD" d="M581.06,375.46l1.1-7s4.09,1,4.29,3.81C586.45,372.28,586.93,374.7,581.06,375.46Z"/><path fill="#FFA01C" stroke="#351D66" stroke-miterlimit="10" d="M336,573.13s-2.39-1.49-.3-6a38.24,38.24,0,0,1,28.74,26.67s-2.41,3.55-5.4.86l1.23-1.64a3.2,3.2,0,0,0,.63-2,10.38,10.38,0,0,0-3.65-7.12s-9-12.27-18.56-13.77Z" data-secondary="true"/><path fill="#F9C7A5" d="M459.24,559.85l3.35,8.19a7.58,7.58,0,0,1,.33,4.68l-2.6,10.44,10.26.56s3.07-.59,5.69,3.45c0,0,3.56,1.75,5.47.56l12.15-18.4L488,549.62S478,559.61,459.24,559.85Z"/><g clip-path="url(#j)"><path fill="#F7A091" d="M459.24,559.85l3.35,8.19s21.8-2,25.45-18.42A52.15,52.15,0,0,1,459.24,559.85Z"/></g><path fill="none" stroke="#351D66" stroke-miterlimit="10" d="M459.24,559.85l3.35,8.19a7.58,7.58,0,0,1,.33,4.68l-2.6,10.44,10.26.56s3.07-.59,5.69,3.45c0,0,3.56,1.75,5.47.56l12.15-18.4L488,549.62S478,559.61,459.24,559.85Z"/><polygon fill="#E6E7E8" stroke="#351D66" stroke-miterlimit="10" points="693.17 504.45 717.78 562.66 734.24 568.65 709.11 504.27 693.17 504.45"/><path fill="none" stroke="#351D66" stroke-miterlimit="10" d="M683.07,506.31s8.38,29.13-16,45.08c0,0-13.87,6-13.57,22.28a19.75,19.75,0,0,0,7.81,15.58c5.22,3.85,13.89,7,27.3,3.23"/><path fill="none" stroke="#351D66" stroke-miterlimit="10" d="M788.74,463.16,770.34,486a10.18,10.18,0,0,1-11.28,3.23L713.74,473.5a11.16,11.16,0,0,1-6.66-6.31L677.8,395.66s-1.62-3.15,5.57-5l10.25-2.16s3.77-2,5.93,4.14l11.5,29.84"/><path fill="none" stroke="#351D66" stroke-miterlimit="10" d="M805.32,461.58l-18.65,21.74a5.25,5.25,0,0,1-5.59,1.57l-52.35-17s-3.55-.79-2.37-5.13"/><path fill="none" stroke="#351D66" stroke-miterlimit="10" d="M706.23,457.24a17.3,17.3,0,0,0-5.43,1.38,2.21,2.21,0,0,0,1,4.17l91.28.77,6.71-1.19"/><polygon fill="#FFA01C" points="706 428.14 706.24 462.06 803.65 462.06 823.61 455.08 823.13 420.93 808.94 425.5 711.29 425.5 706 428.14" data-secondary="true"/><g clip-path="url(#k)"><polygon points="803.41 428.63 803.65 462.06 823.61 455.08 823.13 420.93 808.94 425.5 803.41 428.63" opacity=".2" style="isolation:isolate"/><polygon fill="#FFF" points="706 428.14 803.41 428.63 808.94 425.5 711.29 425.5 706 428.14" opacity=".2" style="isolation:isolate"/></g><polygon fill="none" stroke="#351D66" stroke-miterlimit="10" points="706 428.14 706.24 462.06 803.65 462.06 823.61 455.08 823.13 420.93 808.94 425.5 711.29 425.5 706 428.14"/><polygon fill="#FFA01C" points="711.29 425.5 711.1 404.81 776.31 405.28 793.75 398.12 828.38 397.88 828.62 418.42 808.94 425.5 711.29 425.5" data-secondary="true"/><g clip-path="url(#l)"><polygon fill="#FFF" points="776.31 405.28 808.55 405.52 828.38 397.88 793.75 398.12 776.31 405.28" opacity=".2" style="isolation:isolate"/><polygon points="808.55 405.52 808.94 425.5 828.62 418.42 828.38 397.88 808.55 405.52" opacity=".2" style="isolation:isolate"/></g><polygon fill="none" stroke="#351D66" stroke-miterlimit="10" points="711.29 425.5 711.1 404.81 776.31 405.28 793.75 398.12 828.38 397.88 828.62 418.42 808.94 425.5 711.29 425.5"/><polygon fill="#251860" points="749.92 425.77 743.8 428.3 743.8 442 762.57 442 762.57 428.72 768.26 425.56 749.92 425.77"/><polygon fill="#FFA01C" points="712.18 372.21 712.18 404.81 776.31 404.81 792.72 398.57 792.51 365.89 731.15 365.47 712.18 372.21" data-secondary="true"/><g clip-path="url(#m)"><polygon points="773.53 372.64 776.31 404.81 792.72 398.57 792.51 365.89 773.53 372.64" opacity=".2" style="isolation:isolate"/><polygon fill="#FFF" points="712.18 372.21 773.53 372.64 792.51 365.89 731.15 365.47 712.18 372.21" opacity=".2" style="isolation:isolate"/></g><polygon fill="none" stroke="#351D66" stroke-miterlimit="10" points="712.18 372.21 712.18 404.81 776.31 404.81 792.72 398.57 792.51 365.89 731.15 365.47 712.18 372.21"/><path fill="#D1D3D4" d="M670.71,291.29H651.12s-9.32,5.14-3.34,11.82a5,5,0,0,1,3.9,4.59l1.67,10s.55,7.93,5.28,7.93H685.9s1.66.13,1.66-1.95l-.27-12.94a15.75,15.75,0,0,0-2.65-7.37Z"/><g clip-path="url(#n)"><path fill="#BCBEC0" d="M651.1,291.33c-.24.25-3.13,3.34,1.27,6.94,0,0,12,7.37,7.93,17.81,0,0-1.39,8.48,2.92,9.32l-4.59.28s-5,.27-5.28-7.93l-1.67-10a4.79,4.79,0,0,0-3.9-4.59s-6.39-6,3.32-11.81Z"/></g><path fill="none" stroke="#351D66" stroke-miterlimit="10" d="M670.71,291.29H651.12s-9.32,5.14-3.34,11.82a5,5,0,0,1,3.9,4.59l1.67,10s.55,7.93,5.28,7.93H685.9s1.66.13,1.66-1.95l-.27-12.94a15.75,15.75,0,0,0-2.65-7.37Z"/><path fill="#D2E1F9" stroke="#351D66" stroke-miterlimit="10" d="M640.87,296.19a9.08,9.08,0,0,0,.38,5.93l8.48,21.19s1.25,3.2,8.9,2.37c0,0-4.45.27-5.28-7.93l-1.67-10s-.42-3.75-3.9-4.59c0,0-6.68-5.56,3.34-11.82C651.12,291.32,642.78,289.81,640.87,296.19Z"/><path fill="#7DDCF2" stroke="#351D66" stroke-miterlimit="10" d="M685.56,305.08s5-1.85,9.27,12.86l-7.42.26-.1-5.81a16.54,16.54,0,0,0-.63-4.37A18.34,18.34,0,0,0,685.56,305.08Z"/><path fill="#D2E1F9" d="M689.27,306.27l6.36.4.17-.13a5.06,5.06,0,0,1,7.05,1.22,5,5,0,0,1,.78,1.72c.87,3.52,1.36,9.36-4.62,10.25a1.87,1.87,0,0,1-2-1.22h0l-2.12-.53S692.58,308.79,689.27,306.27Z"/><g clip-path="url(#o)"><path fill="#89B5F7" d="M695.63,306.67s1.26.27,2.09,2.4a8.26,8.26,0,0,1-.86,7.44,18.7,18.7,0,0,1-1.23,1.69l1.32.27a2.35,2.35,0,0,0,1.59,1.32s3.79-2.75,3.35-9.54a6.1,6.1,0,0,0-1.61-3.88,4.44,4.44,0,0,0-1.74-1.16A18.85,18.85,0,0,0,695.63,306.67Z"/></g><path fill="none" stroke="#351D66" stroke-miterlimit="10" d="M689.27,306.27l6.36.4.17-.13a5.06,5.06,0,0,1,7.05,1.22,5,5,0,0,1,.78,1.72c.87,3.52,1.36,9.36-4.62,10.25a1.87,1.87,0,0,1-2-1.22h0l-2.12-.53S692.58,308.79,689.27,306.27Z"/><path fill="#251860" d="M688.36,318.35c1.92.48,8.63,2.25,11.62,4.11a2.78,2.78,0,0,1,1.32,2.46c-.06,1.43.22,3.85,2.62,4.23a3.72,3.72,0,0,0,2.42-.48,3.33,3.33,0,0,0,1.93-3.27,3.81,3.81,0,0,0-2.19-3,31,31,0,0,0-7.54-2.63s-.84,0-1.59-1.32a3,3,0,0,1-2.12-.53l-6.45.26a.09.09,0,0,0-.1.08.09.09,0,0,0,.08.09Z"/><path fill="#7DDCF2" d="M647.78,303.14l-19.54,4.51s-4,1-2.41,6c0,0,.64,6.75,4.5,6.59h18s4,.08,5-2.45l-1.67-10S652.2,304.42,647.78,303.14Z"/><g clip-path="url(#p)"><path d="M635.32,320s-5.15-10.13-2.09-11.58l14.55-5.32-19.54,4.51s-4.67.49-2.41,6c0,0,.32,6.75,4.5,6.59Z" opacity=".2" style="isolation:isolate"/></g><path fill="none" stroke="#351D66" stroke-miterlimit="10" d="M647.78,303.14l-19.54,4.51s-4,1-2.41,6c0,0,.64,6.75,4.5,6.59h18s4,.08,5-2.45l-1.67-10S652.2,304.42,647.78,303.14Z"/><path fill="#D2E1F9" stroke="#351D66" stroke-miterlimit="10" d="M619.07,313.77s-.85-6.45,4.34-6.6L642.08,304l-13.84,3.7s-4.3,1.17-2.41,6c0,0,.77,5.3,4,6.49l-7.57.13a2.66,2.66,0,0,1-2.45-1.74A13.31,13.31,0,0,1,619.07,313.77Z"/><path fill="#D2E1F9" d="M612.24,322.37a9,9,0,0,0,6-6.3,11.34,11.34,0,0,0-2.85-11.28,7.5,7.5,0,0,0-5.92-2.37l-12.49.29-3.89.1a6.43,6.43,0,0,0-4.77,2.28c-4.52,5.47-2,13.87-2,13.87,1.66,4.43,10.08,3.53,10.08,3.53Z"/><g clip-path="url(#q)"><ellipse cx="591.52" cy="312.39" fill="#89B5F7" rx="10.22" ry="6.68" transform="translate(235.75 878.89) rotate(-85.71)"/></g><path fill="none" stroke="#351D66" stroke-miterlimit="10" d="M612.24,322.37a9,9,0,0,0,6-6.3,11.34,11.34,0,0,0-2.85-11.28,7.5,7.5,0,0,0-5.92-2.37l-12.49.29-3.89.1a6.43,6.43,0,0,0-4.77,2.28c-4.52,5.47-2,13.87-2,13.87,1.66,4.43,10.08,3.53,10.08,3.53Z"/><path fill="#D2E1F9" stroke="#351D66" stroke-miterlimit="10" d="M590.59,318.92l-26.41-1.28a.59.59,0,0,0-.53.26c-.34.49-1.29,1.58-4.28,1.8a.09.09,0,0,1,0-.1.12.12,0,0,1,0-.05,8,8,0,0,0,4-5.85,8.68,8.68,0,0,0-.84-5.83,4.83,4.83,0,0,0-3.33-2.62s3.39.2,5,1.8l26.17-1.15a3.23,3.23,0,0,1,2.8,1.3c.8,1.09,1.55,3,1.35,6.43C594.51,313.63,593.46,318.82,590.59,318.92Z"/><ellipse cx="558.61" cy="312.6" fill="#D2E1F9" stroke="#351D66" stroke-miterlimit="10" stroke-width="1" rx="7.23" ry="4.89" transform="translate(207.71 847.98) rotate(-85.99)"/><path fill="#251860" d="M573.65,333.61c1.64.13,4.13-.42,4.74-4.69,0,0,1.06-3.84,7.68-5.43,0,0,24.65-7.82,35.65-6.36l.13-2.25s-16.69-.66-37,7c0,0-15.16,4.73-13.67,9.87A2.7,2.7,0,0,0,573.65,333.61Z"/><polygon fill="none" stroke="#351D66" stroke-miterlimit="10" points="624.06 334.74 630.78 330.74 636.41 342.55 628.96 346.54 624.06 334.74"/><path fill="none" stroke="#351D66" stroke-miterlimit="10" d="M590.73,322.57s5.43,13.7,17.09,10.17a15.22,15.22,0,0,0,2.25-.93c2.63-1.29,11.89-5.06,18.53,2.2"/><path fill="#D2E1F9" stroke="#351D66" stroke-miterlimit="10" d="M511.38,570.77l64.78-9.8,16.75.2s-16.53,8.62-20.9,8.62Z"/><path fill="#D2E1F9" stroke="#351D66" stroke-miterlimit="10" d="M537.34,592.65l16.69,27s2.57,6.43-2.57,5.91l-10.79-.26,2.32-2.82h7.41a1.19,1.19,0,0,0,1.17-1c.21-1.06,0-2.86-2.39-4.81L534.49,596a18.15,18.15,0,0,1-3.28-12.26c.36-3.66,1.35-7.63,3.81-9.36l18.5-.51,10.79,8,19.52,31.6s1.54,5.14-3.08,4.62l-10,.26,2.31-2.57,7.71-.26s2.75-.39.86-2.38a35,35,0,0,1-3.56-4.57L563.14,586.5a11.89,11.89,0,0,0-3.53-3.39L551,577.75s-4.74-1.13-5.12,2.75a4.75,4.75,0,0,1-.78,2.27A7.78,7.78,0,0,1,539,586a2.47,2.47,0,0,0-2.18,1.58A5.39,5.39,0,0,0,537.34,592.65Z"/><path fill="#D2E1F9" stroke="#351D66" stroke-miterlimit="10" d="M358.74,489.16a10.48,10.48,0,0,1-5.65-10.49l3.53-15.9s1.85-5.78,10.9-8.32Z"/><line x1="378.29" x2="371.18" y1="446.07" y2="436.01" fill="none" stroke="#351D66" stroke-miterlimit="10"/><path fill="none" stroke="#351D66" stroke-miterlimit="10" d="M414.84,430.19l-42.29.25a15.57,15.57,0,0,0-3.53.43l-16.3,3.89a.54.54,0,0,0-.38.66.55.55,0,0,0,.5.4l47.79.43Z"/><line x1="395.76" x2="399.73" y1="430.45" y2="436.7" fill="none" stroke="#351D66" stroke-miterlimit="10"/><path fill="#FFA01C" d="M525.1,351.53l-98.54,35.9S405,391.82,411.4,415.76l23.14,105.31s4.22,14.48,9.78,19.31a19.07,19.07,0,0,1,4.94,6.84l5.62,12.95s26.33,1.2,37.1-15.56l-5.88-12.36a9.7,9.7,0,0,1-.27-7.67c1.63-4.22,3.09-12.85-1.82-27.84,0,0-21.15-46.28-23.54-69.81L544.64,407s37.1-6.38,37.5-39.5a130.55,130.55,0,0,0-57-16Z" data-secondary="true"/><g clip-path="url(#r)"><path d="M555.62,362.15s1.39,37.71-108.38,50a5.91,5.91,0,0,0-5.23,6.43c2.29,23.67,12.75,112.36,42.1,133.59,0,0,5.64-3.48,7.87-7.52l-8-16.75s7.84-7.78,0-31.12c0,0-18.28-37.55-23.54-69.81l84.2-20s35.9-5,37.52-38.51C582.16,368.47,580.18,364.56,555.62,362.15Z" opacity=".2" style="isolation:isolate"/></g><path fill="none" stroke="#351D66" stroke-miterlimit="10" d="M525.1,351.53l-98.54,35.9S405,391.82,411.4,415.76l23.14,105.31s4.22,14.48,9.78,19.31a19.07,19.07,0,0,1,4.94,6.84l5.62,12.95s26.33,1.2,37.1-15.56l-5.88-12.36a9.7,9.7,0,0,1-.27-7.67c1.63-4.22,3.09-12.85-1.82-27.84,0,0-21.15-46.28-23.54-69.81L544.64,407s37.1-6.38,37.5-39.5a130.55,130.55,0,0,0-57-16Z"/><path fill="#E71D35" d="M524,360.72l.85-13.4s60.34-.65,64.38,14.44l-.41,10.64s.43,4-8.19,5.65l.66-2.71s6.76-.57,4.81-4.31c0,0-3.91-5.22-20.55-7.38-.47-.06-.94-.13-1.4-.21C561.56,363,549.52,361,524,360.72Z" data-primary="true"/><g clip-path="url(#s)"><path d="M524,360.72s29.12-11.51,58.86,2.37c0,0,3.23,2.1,6.37-1.33,0,0-2-7.39-17.08-9.77,0,0-18.07-5.78-47.3-4.67Z" opacity=".2" style="isolation:isolate"/></g><path fill="none" stroke="#351D66" stroke-miterlimit="10" d="M524,360.72l.85-13.4s60.34-.65,64.38,14.44l-.41,10.64s.43,4-8.19,5.65l.66-2.71s6.76-.57,4.81-4.31c0,0-3.91-5.22-20.55-7.38-.47-.06-.94-.13-1.4-.21C561.56,363,549.52,361,524,360.72Z"/><path fill="#D2E1F9" d="M725.86,562.36l-25.15-5.91a19,19,0,1,0-2.07,35.11l25.42-3.47C734.54,586.3,735.43,577,735.43,577,737.23,564.46,725.86,562.36,725.86,562.36Z"/><g clip-path="url(#t)"><path fill="#89B5F7" d="M698.64,591.56s39-5.24,27.22-29.2c0,0,10.49,2.24,9.57,14.66a13.47,13.47,0,0,1-11.37,11.07Z"/></g><path fill="none" stroke="#351D66" stroke-miterlimit="10" d="M725.86,562.36l-25.15-5.91a19,19,0,1,0-2.07,35.11l25.42-3.47C734.54,586.3,735.43,577,735.43,577,737.23,564.46,725.86,562.36,725.86,562.36Z"/><circle cx="692.8" cy="573.58" r="9.13" fill="#89B5F7"/><path fill="#E71D35" stroke="#351D66" stroke-miterlimit="10" d="M446.54,608.62l13.89-27.11,9.76.24s4.76.48,6.66,4.52c0,0,2.38,2.15,4,.48l12.38-19.52L504.16,578s-.65,6.58-10.65,16.1L479,616.5s-5.47,10.48-21.18,11.43l-34.75,1.19s-1.43-7.14,10.47-11.43l9.79-5.68A8.19,8.19,0,0,0,446.54,608.62Z" data-primary="true"/><path fill="#251860" d="M423.06,629.12v2.14h34.75s14.76,1.67,23.33-11l13.09-20.71s12.85-12.37,12.61-18.56L504,578.42s-.72,6.9-10.48,15.71L479,616.5a26.73,26.73,0,0,1-21.18,11.43Z"/><path fill="#E71D35" stroke="#351D66" stroke-miterlimit="10" d="M269,553.39s3-4.49,23,14.06c0,0,6.58,5.39,18.55,20.35,0,0,15.56,18,24.53,26.92,0,0,5.9,4.5,5.45,9.4a.12.12,0,0,0,.1.12.12.12,0,0,0,.1,0L350.36,609s1.2-4.79-5.38-10.47L332.11,586.3l-3.89-10.17-48.17-23.94S272.27,548,269,553.39Z" data-primary="true"/><path fill="#FFF" d="M328.22,576.13s-9.1-3-8.44.84c0,0-1.63,3.11,12.33,9.33Z"/><path fill="#F9C7A5" d="M327.45,576.51l4.66,1.41,6-7a1.6,1.6,0,0,1,1.66-.52c2.25.61,8,2.91,15.8,11.38,0,0,5.2,5.34,5.32,10a1.64,1.64,0,0,1-.33,1l-1.48,2L349.25,610s-.15-4.78-5.84-9.87l-13.12-12.4Z"/><g clip-path="url(#u)"><path fill="#F7A091" d="M332.11,577.92s20.11-.67,26.93,16.76l1.82-2.37a12,12,0,0,0-3.61-8.4S350,573,338.69,570.14Z"/></g><path fill="none" stroke="#351D66" stroke-miterlimit="10" d="M327.45,576.51l4.66,1.41,6-7a1.6,1.6,0,0,1,1.66-.52c2.25.61,8,2.91,15.8,11.38,0,0,5.2,5.34,5.32,10a1.64,1.64,0,0,1-.33,1l-1.48,2L349.25,610s-.15-4.78-5.84-9.87l-13.12-12.4Z"/><path fill="#251860" d="M335.1,614.72,310.57,587.8c-10.17-14.67-26.33-26.63-26.33-26.63-12-10.48-15.26-7.78-15.26-7.78s-1.49,4.78,4.79,11.67c0,0,54.15,59.24,66.72,59.54C340.49,624.6,341.84,620.11,335.1,614.72Z"/><polygon fill="#251860" points="816.44 413.4 823.12 411.02 823.6 400.03 789.68 399.79 783.95 402.18 815.72 402.66 816.44 413.4"/><polygon fill="#251860" points="734.53 386.13 734.32 372.64 751.73 365.77 769.7 366.13 753.29 372.43 753.29 386.34 734.53 386.13"/><path fill="#E71D35" d="M480.41,235.24s-6.72,6.23-4.55,24.5L456,317.66s-16.42,35.63,5.88,42.75c0,0-.3-7.36,25.64-9.88a.23.23,0,0,0,.21-.23.36.36,0,0,0,0-.11c-.81-1.27-3.67-6.74-3.63-20.31a97,97,0,0,1,7.82-37.56c7-16.51,18.84-45.9,21.42-61.39l1-15L512.9,217a39.91,39.91,0,0,0-9.46,2.68,50.07,50.07,0,0,1-8,2.67C491.4,223.37,485.11,226.4,480.41,235.24Z" data-primary="true"/><g clip-path="url(#v)"><path d="M461.92,360.41s.17-5.35,13.1-7.63c0,0-22.21-18.64,1.58-59.49,0,0,13.17-34.79,3.81-58.05,0,0-16.1,10.86-9.75,39C470.66,274.25,427.41,350.59,461.92,360.41Z" opacity=".2" style="isolation:isolate"/></g><path fill="none" stroke="#351D66" stroke-miterlimit="10" d="M480.41,235.24s-6.72,6.23-4.55,24.5L456,317.66s-16.42,35.63,5.88,42.75c0,0-.3-7.36,25.64-9.88a.23.23,0,0,0,.21-.23.36.36,0,0,0,0-.11c-.81-1.27-3.67-6.74-3.63-20.31a97,97,0,0,1,7.82-37.56c7-16.51,18.84-45.9,21.42-61.39l1-15L512.9,217a39.91,39.91,0,0,0-9.46,2.68,50.07,50.07,0,0,1-8,2.67C491.4,223.37,485.11,226.4,480.41,235.24Z"/><path fill="#E71D35" stroke="#351D66" stroke-miterlimit="10" d="M480.41,235.24l-50.5,43.45,28.22,32.54,17.73-51.49S472.48,244.25,480.41,235.24Z" data-primary="true"/><path fill="#E71D35" stroke="#351D66" stroke-miterlimit="10" d="M424.6,277s-19.92,4.65-14.6,22.58c0,0,3,20.58,28.55,20.25,0,0,8.3-1.33,12.61-6.31,0,0-6,1.33-7.63-3.32L426.93,276Z" data-primary="true"/><path fill="#F9C7A5" d="M421.28,288.65s-7,9,.33,18.26c0,0,4.32,7.31,14.61,6Z"/><g clip-path="url(#w)"><path fill="#F7A091" d="M423.27,292.31S421,302.6,426.59,310.9c0,0,1.66,3.32,9.63,2Z"/></g><path fill="none" stroke="#351D66" stroke-miterlimit="10" d="M421.28,288.65s-7,9,.33,18.26c0,0,4.32,7.31,14.61,6Z"/><path fill="#D1D3D4" stroke="#351D66" stroke-miterlimit="10" d="M418.87,257.76a2.48,2.48,0,0,0-.08,2.35l24.74,50.12s1,4,7.63,3.32h49.47s4.64,0,3.65-3L478.05,259.1s-2.18-5.67-10-4.65H437.22c-2.11,0-4.22-.07-6.32-.25C427.6,253.91,421.17,253.88,418.87,257.76Z"/><path fill="#F9C7A5" stroke="#351D66" stroke-miterlimit="10" d="M421.28,288.65s-4.31-8.3,5.65-12.61l14.81-9.51a3.13,3.13,0,0,1,4.32,1l.08.13h0a3.12,3.12,0,0,1-.9,4.06l-9.18,6.59a.25.25,0,1,0,.23.45l13-4.75a3.72,3.72,0,0,1,4.76,2.21h0a3.72,3.72,0,0,1-1.52,4.44l-.09.06s6.31,4.31-1.33,8c0,0,3.65,7.31-2.65,7.64l-8.3,3.65v3.65l3.32,6.64s-1,3.32-7.31,2.66C436.22,312.89,429.91,313.55,421.28,288.65Z"/><path fill="#F9C7A5" stroke="#351D66" stroke-miterlimit="10" d="M535.27,304.65c1.21-10.91-5.59-13.36-5.59-13.36l-10.57-.4-8.18-12.17a13.51,13.51,0,0,0-7-5.58l-22.14-7,2.6,6.18,5,2.19-4-.4,7.38,14.57,4.79-1,2.19,6.18-6-3,9,17.75c2.79,4.79,9.17,5.79,9.17,5.79l12.17,4.38S533.67,319,535.27,304.65Z"/><path fill="#E71D35" d="M523.45,224s-16.9,13.16-19.3,8.23c0,0-1-4.52,14.46-21.18v1.25a5.39,5.39,0,0,0,5.2,5.21c6.94.25,19.67-.36,29.08-6.95a4.91,4.91,0,0,0,1.79-5.69h0s8.82,4.19,10.47,9.57c0,0,4,7.78-5.69,12.42C559.5,226.81,538,241.92,523.45,224Z" data-primary="true"/><g clip-path="url(#x)"><path d="M518.61,211s-1,5.83,5.24,6.46c0,0-9.69,3.48-6.6,6.09,0,0,2.85-.24,7.36-2.85,0,0,9,12.66,34.89,6.09,0,0-22.48,15.6-36-2.84,0,0-16.25,13.05-19.3,8.23C504.15,232.2,502.15,229.33,518.61,211Z" opacity=".2" style="isolation:isolate"/></g><path fill="none" stroke="#351D66" stroke-miterlimit="10" d="M523.45,224s-16.9,13.16-19.3,8.23c0,0-1-4.52,14.46-21.18v1.25a5.39,5.39,0,0,0,5.2,5.21c6.94.25,19.67-.36,29.08-6.95a4.91,4.91,0,0,0,1.79-5.69h0s8.82,4.19,10.47,9.57c0,0,4,7.78-5.69,12.42C559.5,226.81,538,241.92,523.45,224Z"/><ellipse cx="506.86" cy="161.91" fill="#351D66" rx="1.77" ry="2.95" transform="translate(-25.15 152.57) rotate(-16.71)"/><ellipse cx="521.92" cy="158.29" fill="#351D66" rx="1.77" ry="2.95" transform="translate(-23.47 156.75) rotate(-16.71)"/><path fill="none" stroke="#351D66" stroke-miterlimit="10" d="M514.17,163.84s-3.59,12.8,1.69,12.06"/><path fill="none" stroke="#351D66" stroke-miterlimit="10" d="M510.74,181.08s5.87,7.94,13.22,0"/></svg>